G04 (created by PCBNEW (2013-07-07 BZR 4022)-stable) date 27/10/2013 04:34:24*
%MOIN*%
G04 Gerber Fmt 3.4, Leading zero omitted, Abs format*
%FSLAX34Y34*%
G01*
G70*
G90*
G04 APERTURE LIST*
%ADD10C,0.00393701*%
%ADD11C,0.0590551*%
%ADD12C,0.15748*%
%ADD13C,0.0669*%
%ADD14O,0.1181X0.1969*%
%ADD15C,0.07*%
%ADD16O,0.0984252X0.0590551*%
%ADD17O,0.12X0.07*%
%ADD18C,0.15*%
%ADD19C,0.2165*%
%ADD20O,0.1969X0.1181*%
%ADD21C,0.0787402*%
%ADD22C,0.019685*%
%ADD23C,0.11811*%
%ADD24C,0.0590551*%
%ADD25C,0.0393701*%
%ADD26C,0.0787402*%
%ADD27C,0.00787402*%
G04 APERTURE END LIST*
G54D10*
G54D11*
X47647Y-37858D03*
X47647Y-41858D03*
X45647Y-36358D03*
X45647Y-40358D03*
X47647Y-32858D03*
X47647Y-36858D03*
X46647Y-37858D03*
X46647Y-41858D03*
X44647Y-36358D03*
X44647Y-40358D03*
X46647Y-32858D03*
X46647Y-36858D03*
G54D12*
X50647Y-29608D03*
X48647Y-29608D03*
X44647Y-29608D03*
X46647Y-29608D03*
G54D13*
X48397Y-45858D03*
X48397Y-44858D03*
X47397Y-45858D03*
X47397Y-44858D03*
G54D14*
X51677Y-44108D03*
X50117Y-44108D03*
X45677Y-44108D03*
X44117Y-44108D03*
G54D11*
X43647Y-33858D03*
X43647Y-37858D03*
G54D15*
X44647Y-32797D03*
X44667Y-31419D03*
G54D16*
X51594Y-33858D03*
X51594Y-34858D03*
X51594Y-35858D03*
X51594Y-36858D03*
X51594Y-37858D03*
X51594Y-38858D03*
X51594Y-39858D03*
X51594Y-40858D03*
X49200Y-34358D03*
X49200Y-35358D03*
X49200Y-36358D03*
X49200Y-37358D03*
X49200Y-38358D03*
X49200Y-39358D03*
X49200Y-40358D03*
G54D13*
X43647Y-38858D03*
X43647Y-39858D03*
G54D17*
X31496Y-11992D03*
X31496Y-13992D03*
X31496Y-21440D03*
X31496Y-23440D03*
X35433Y-21440D03*
X35433Y-23440D03*
X35433Y-11992D03*
X35433Y-13992D03*
G54D18*
X23622Y-15716D03*
X23622Y-19716D03*
X43307Y-15716D03*
X43307Y-19716D03*
G54D19*
X51181Y-9842D03*
X51181Y-25590D03*
X15748Y-25590D03*
X15748Y-9842D03*
G54D20*
X14960Y-18496D03*
X14960Y-16936D03*
X51574Y-16936D03*
X51574Y-18496D03*
G54D11*
X35539Y-8938D03*
X39539Y-8938D03*
G54D13*
X41539Y-8938D03*
X40539Y-8938D03*
G54D21*
X16338Y-34842D03*
X16338Y-36811D03*
X16338Y-38779D03*
X20275Y-34842D03*
X20275Y-36811D03*
X20275Y-38779D03*
G54D13*
X18594Y-43503D03*
X19594Y-43503D03*
X22350Y-43503D03*
X21350Y-43503D03*
X39566Y-39279D03*
X39566Y-38279D03*
X39566Y-34342D03*
X39566Y-35342D03*
G54D15*
X39086Y-41141D03*
X25086Y-41141D03*
X39086Y-32480D03*
X25086Y-32480D03*
G54D19*
X16338Y-43897D03*
X16338Y-29724D03*
X39960Y-29724D03*
X39960Y-43897D03*
G54D22*
X45647Y-36358D02*
X47897Y-36358D01*
X48897Y-37358D02*
X49397Y-37358D01*
X47897Y-36358D02*
X48897Y-37358D01*
G54D23*
X14960Y-18503D02*
X14960Y-21259D01*
X14960Y-21259D02*
X20472Y-26771D01*
X31496Y-17322D02*
X31496Y-13992D01*
X31496Y-21440D02*
X33464Y-21440D01*
X33464Y-21440D02*
X33464Y-21259D01*
X33464Y-25590D02*
X33464Y-21259D01*
X33464Y-21259D02*
X33464Y-19291D01*
X32283Y-26771D02*
X33464Y-25590D01*
X20472Y-26771D02*
X32283Y-26771D01*
X33464Y-19291D02*
X31496Y-17322D01*
X14960Y-16929D02*
X14960Y-14173D01*
X14960Y-14173D02*
X20472Y-8661D01*
X35433Y-13992D02*
X33858Y-13992D01*
X33858Y-13992D02*
X33858Y-13779D01*
X33858Y-10236D02*
X33858Y-13779D01*
X32283Y-8661D02*
X33858Y-10236D01*
X20472Y-8661D02*
X32283Y-8661D01*
X35433Y-17716D02*
X35433Y-21440D01*
X33858Y-16141D02*
X35433Y-17716D01*
X33858Y-13779D02*
X33858Y-16141D01*
G54D24*
X25086Y-41141D02*
X18700Y-41141D01*
X18700Y-41141D02*
X16338Y-38779D01*
G54D25*
X41539Y-8938D02*
X41539Y-17948D01*
X41539Y-17948D02*
X43307Y-19716D01*
G54D24*
X20275Y-38779D02*
X25086Y-33968D01*
X25086Y-33968D02*
X25086Y-32480D01*
G54D26*
X51397Y-40858D02*
X50397Y-40858D01*
X50117Y-44108D02*
X50117Y-43388D01*
X49897Y-34358D02*
X49397Y-34358D01*
X50397Y-34858D02*
X49897Y-34358D01*
X50397Y-43108D02*
X50397Y-40858D01*
X50397Y-40858D02*
X50397Y-34858D01*
X50117Y-43388D02*
X50397Y-43108D01*
G54D22*
X43647Y-39858D02*
X42897Y-39858D01*
X42897Y-39858D02*
X42647Y-40108D01*
G54D26*
X49397Y-35358D02*
X44147Y-35358D01*
X45677Y-43138D02*
X45677Y-44108D01*
X42647Y-40108D02*
X45677Y-43138D01*
X42647Y-36858D02*
X42647Y-40108D01*
X44147Y-35358D02*
X42647Y-36858D01*
G54D10*
G36*
X52972Y-47066D02*
X52539Y-47066D01*
X52539Y-44498D01*
X52539Y-43717D01*
X52475Y-43387D01*
X52289Y-43107D01*
X52275Y-43099D01*
X52275Y-36084D01*
X52275Y-35632D01*
X52243Y-35590D01*
X52106Y-35437D01*
X51921Y-35349D01*
X51840Y-35394D01*
X51840Y-35710D01*
X52242Y-35710D01*
X52275Y-35632D01*
X52275Y-36084D01*
X52242Y-36005D01*
X51840Y-36005D01*
X51840Y-36321D01*
X51921Y-36367D01*
X52106Y-36278D01*
X52243Y-36125D01*
X52275Y-36084D01*
X52275Y-43099D01*
X52053Y-42974D01*
X51933Y-42988D01*
X51933Y-43852D01*
X52468Y-43852D01*
X52539Y-43717D01*
X52539Y-44498D01*
X52468Y-44364D01*
X51933Y-44364D01*
X51933Y-45228D01*
X52053Y-45241D01*
X52289Y-45109D01*
X52475Y-44829D01*
X52539Y-44498D01*
X52539Y-47066D01*
X48981Y-47066D01*
X48981Y-45826D01*
X48949Y-45664D01*
X48889Y-45634D01*
X48889Y-44760D01*
X48814Y-44579D01*
X48676Y-44441D01*
X48495Y-44366D01*
X48300Y-44366D01*
X48119Y-44440D01*
X48100Y-44459D01*
X48100Y-41768D01*
X48100Y-37768D01*
X48031Y-37602D01*
X47904Y-37474D01*
X47738Y-37405D01*
X47557Y-37405D01*
X47391Y-37474D01*
X47264Y-37601D01*
X47194Y-37767D01*
X47194Y-37947D01*
X47263Y-38114D01*
X47390Y-38241D01*
X47557Y-38310D01*
X47737Y-38311D01*
X47903Y-38242D01*
X48031Y-38115D01*
X48100Y-37948D01*
X48100Y-37768D01*
X48100Y-41768D01*
X48031Y-41602D01*
X47904Y-41474D01*
X47738Y-41405D01*
X47557Y-41405D01*
X47391Y-41474D01*
X47264Y-41601D01*
X47194Y-41767D01*
X47194Y-41947D01*
X47263Y-42114D01*
X47390Y-42241D01*
X47557Y-42310D01*
X47737Y-42311D01*
X47903Y-42242D01*
X48031Y-42115D01*
X48100Y-41948D01*
X48100Y-41768D01*
X48100Y-44459D01*
X47980Y-44579D01*
X47905Y-44759D01*
X47905Y-44955D01*
X47980Y-45136D01*
X48118Y-45275D01*
X48201Y-45309D01*
X48163Y-45387D01*
X48397Y-45621D01*
X48631Y-45387D01*
X48593Y-45309D01*
X48675Y-45275D01*
X48814Y-45137D01*
X48889Y-44956D01*
X48889Y-44760D01*
X48889Y-45634D01*
X48867Y-45624D01*
X48634Y-45858D01*
X48867Y-46092D01*
X48949Y-46052D01*
X48981Y-45826D01*
X48981Y-47066D01*
X48631Y-47066D01*
X48631Y-46328D01*
X48397Y-46094D01*
X48163Y-46328D01*
X48203Y-46410D01*
X48429Y-46442D01*
X48591Y-46410D01*
X48631Y-46328D01*
X48631Y-47066D01*
X48161Y-47066D01*
X48161Y-45858D01*
X47927Y-45624D01*
X47897Y-45638D01*
X47889Y-45634D01*
X47889Y-44760D01*
X47814Y-44579D01*
X47676Y-44441D01*
X47495Y-44366D01*
X47300Y-44366D01*
X47119Y-44440D01*
X47100Y-44459D01*
X47100Y-41768D01*
X47100Y-37768D01*
X47031Y-37602D01*
X46904Y-37474D01*
X46738Y-37405D01*
X46557Y-37405D01*
X46391Y-37474D01*
X46264Y-37601D01*
X46194Y-37767D01*
X46194Y-37947D01*
X46263Y-38114D01*
X46390Y-38241D01*
X46557Y-38310D01*
X46737Y-38311D01*
X46903Y-38242D01*
X47031Y-38115D01*
X47100Y-37948D01*
X47100Y-37768D01*
X47100Y-41768D01*
X47031Y-41602D01*
X46904Y-41474D01*
X46738Y-41405D01*
X46557Y-41405D01*
X46391Y-41474D01*
X46264Y-41601D01*
X46194Y-41767D01*
X46194Y-41947D01*
X46263Y-42114D01*
X46390Y-42241D01*
X46557Y-42310D01*
X46737Y-42311D01*
X46903Y-42242D01*
X47031Y-42115D01*
X47100Y-41948D01*
X47100Y-41768D01*
X47100Y-44459D01*
X46980Y-44579D01*
X46905Y-44759D01*
X46905Y-44955D01*
X46980Y-45136D01*
X47118Y-45275D01*
X47201Y-45309D01*
X47163Y-45387D01*
X47397Y-45621D01*
X47631Y-45387D01*
X47593Y-45309D01*
X47675Y-45275D01*
X47814Y-45137D01*
X47889Y-44956D01*
X47889Y-44760D01*
X47889Y-45634D01*
X47867Y-45624D01*
X47634Y-45858D01*
X47867Y-46092D01*
X47897Y-46077D01*
X47927Y-46092D01*
X48161Y-45858D01*
X48161Y-47066D01*
X47631Y-47066D01*
X47631Y-46328D01*
X47397Y-46094D01*
X47163Y-46328D01*
X47203Y-46410D01*
X47429Y-46442D01*
X47591Y-46410D01*
X47631Y-46328D01*
X47631Y-47066D01*
X47161Y-47066D01*
X47161Y-45858D01*
X46927Y-45624D01*
X46845Y-45664D01*
X46813Y-45890D01*
X46845Y-46052D01*
X46927Y-46092D01*
X47161Y-45858D01*
X47161Y-47066D01*
X43861Y-47066D01*
X43861Y-45228D01*
X43861Y-44364D01*
X43861Y-43852D01*
X43861Y-42988D01*
X43741Y-42974D01*
X43505Y-43107D01*
X43319Y-43387D01*
X43255Y-43717D01*
X43326Y-43852D01*
X43861Y-43852D01*
X43861Y-44364D01*
X43326Y-44364D01*
X43255Y-44498D01*
X43319Y-44829D01*
X43505Y-45109D01*
X43741Y-45241D01*
X43861Y-45228D01*
X43861Y-47066D01*
X42165Y-47066D01*
X42165Y-46781D01*
X42215Y-46771D01*
X42272Y-46733D01*
X42311Y-46676D01*
X42324Y-46608D01*
X42324Y-40564D01*
X45058Y-43298D01*
X44986Y-43405D01*
X44952Y-43577D01*
X44915Y-43387D01*
X44729Y-43107D01*
X44493Y-42974D01*
X44373Y-42988D01*
X44373Y-43852D01*
X44381Y-43852D01*
X44381Y-44364D01*
X44373Y-44364D01*
X44373Y-45228D01*
X44493Y-45241D01*
X44729Y-45109D01*
X44915Y-44829D01*
X44952Y-44638D01*
X44986Y-44810D01*
X45148Y-45053D01*
X45391Y-45215D01*
X45677Y-45272D01*
X45963Y-45215D01*
X46206Y-45053D01*
X46368Y-44810D01*
X46425Y-44524D01*
X46425Y-43691D01*
X46368Y-43405D01*
X46228Y-43196D01*
X46228Y-43138D01*
X46192Y-42954D01*
X46192Y-40337D01*
X46158Y-40169D01*
X46078Y-40135D01*
X45870Y-40344D01*
X45870Y-39926D01*
X45836Y-39846D01*
X45626Y-39813D01*
X45458Y-39846D01*
X45425Y-39926D01*
X45647Y-40149D01*
X45870Y-39926D01*
X45870Y-40344D01*
X45856Y-40358D01*
X46078Y-40580D01*
X46158Y-40547D01*
X46192Y-40337D01*
X46192Y-42954D01*
X46186Y-42927D01*
X46067Y-42748D01*
X46067Y-42748D01*
X45870Y-42551D01*
X45870Y-40789D01*
X45647Y-40567D01*
X45438Y-40775D01*
X45438Y-40358D01*
X45216Y-40135D01*
X45147Y-40164D01*
X45078Y-40135D01*
X44870Y-40344D01*
X44870Y-39926D01*
X44836Y-39846D01*
X44626Y-39813D01*
X44458Y-39846D01*
X44425Y-39926D01*
X44647Y-40149D01*
X44870Y-39926D01*
X44870Y-40344D01*
X44856Y-40358D01*
X45078Y-40580D01*
X45147Y-40551D01*
X45216Y-40580D01*
X45438Y-40358D01*
X45438Y-40775D01*
X45425Y-40789D01*
X45458Y-40869D01*
X45668Y-40902D01*
X45836Y-40869D01*
X45870Y-40789D01*
X45870Y-42551D01*
X44870Y-41551D01*
X44870Y-40789D01*
X44647Y-40567D01*
X44438Y-40775D01*
X44438Y-40358D01*
X44216Y-40135D01*
X44136Y-40169D01*
X44102Y-40379D01*
X44136Y-40547D01*
X44216Y-40580D01*
X44438Y-40358D01*
X44438Y-40775D01*
X44425Y-40789D01*
X44458Y-40869D01*
X44668Y-40902D01*
X44836Y-40869D01*
X44870Y-40789D01*
X44870Y-41551D01*
X43669Y-40350D01*
X43745Y-40350D01*
X43925Y-40275D01*
X44064Y-40137D01*
X44139Y-39956D01*
X44139Y-39760D01*
X44064Y-39579D01*
X43926Y-39441D01*
X43745Y-39366D01*
X43550Y-39366D01*
X43369Y-39440D01*
X43230Y-39579D01*
X43221Y-39602D01*
X43198Y-39602D01*
X43198Y-39060D01*
X43230Y-39136D01*
X43368Y-39275D01*
X43549Y-39350D01*
X43745Y-39350D01*
X43925Y-39275D01*
X44064Y-39137D01*
X44139Y-38956D01*
X44139Y-38760D01*
X44064Y-38579D01*
X43926Y-38441D01*
X43745Y-38366D01*
X43550Y-38366D01*
X43369Y-38440D01*
X43230Y-38579D01*
X43198Y-38656D01*
X43198Y-37957D01*
X43263Y-38114D01*
X43390Y-38241D01*
X43557Y-38310D01*
X43737Y-38311D01*
X43903Y-38242D01*
X44031Y-38115D01*
X44100Y-37948D01*
X44100Y-37768D01*
X44031Y-37602D01*
X43904Y-37474D01*
X43738Y-37405D01*
X43557Y-37405D01*
X43391Y-37474D01*
X43264Y-37601D01*
X43198Y-37758D01*
X43198Y-37086D01*
X44375Y-35909D01*
X44548Y-35909D01*
X44391Y-35974D01*
X44264Y-36101D01*
X44194Y-36267D01*
X44194Y-36447D01*
X44263Y-36614D01*
X44390Y-36741D01*
X44557Y-36810D01*
X44737Y-36811D01*
X44903Y-36742D01*
X45031Y-36615D01*
X45100Y-36448D01*
X45100Y-36268D01*
X45031Y-36102D01*
X44904Y-35974D01*
X44747Y-35909D01*
X45548Y-35909D01*
X45391Y-35974D01*
X45264Y-36101D01*
X45194Y-36267D01*
X45194Y-36447D01*
X45263Y-36614D01*
X45390Y-36741D01*
X45557Y-36810D01*
X45737Y-36811D01*
X45903Y-36742D01*
X46031Y-36615D01*
X46031Y-36614D01*
X46258Y-36614D01*
X46194Y-36767D01*
X46194Y-36947D01*
X46263Y-37114D01*
X46390Y-37241D01*
X46557Y-37310D01*
X46737Y-37311D01*
X46903Y-37242D01*
X47031Y-37115D01*
X47100Y-36948D01*
X47100Y-36768D01*
X47036Y-36614D01*
X47258Y-36614D01*
X47194Y-36767D01*
X47194Y-36947D01*
X47263Y-37114D01*
X47390Y-37241D01*
X47557Y-37310D01*
X47737Y-37311D01*
X47903Y-37242D01*
X48031Y-37115D01*
X48100Y-36948D01*
X48100Y-36922D01*
X48539Y-37361D01*
X48572Y-37531D01*
X48671Y-37678D01*
X48817Y-37776D01*
X48991Y-37811D01*
X49410Y-37811D01*
X49583Y-37776D01*
X49730Y-37678D01*
X49828Y-37531D01*
X49846Y-37442D01*
X49846Y-38086D01*
X49712Y-37937D01*
X49528Y-37849D01*
X49446Y-37894D01*
X49446Y-38210D01*
X49464Y-38210D01*
X49464Y-38505D01*
X49446Y-38505D01*
X49446Y-38821D01*
X49528Y-38867D01*
X49712Y-38778D01*
X49846Y-38629D01*
X49846Y-39274D01*
X49828Y-39185D01*
X49730Y-39038D01*
X49583Y-38939D01*
X49410Y-38905D01*
X48991Y-38905D01*
X48954Y-38912D01*
X48954Y-38821D01*
X48954Y-38505D01*
X48954Y-38210D01*
X48954Y-37894D01*
X48873Y-37849D01*
X48688Y-37937D01*
X48551Y-38090D01*
X48519Y-38132D01*
X48552Y-38210D01*
X48954Y-38210D01*
X48954Y-38505D01*
X48552Y-38505D01*
X48519Y-38584D01*
X48551Y-38625D01*
X48688Y-38778D01*
X48873Y-38867D01*
X48954Y-38821D01*
X48954Y-38912D01*
X48817Y-38939D01*
X48671Y-39038D01*
X48572Y-39185D01*
X48538Y-39358D01*
X48572Y-39531D01*
X48671Y-39678D01*
X48817Y-39776D01*
X48991Y-39811D01*
X49410Y-39811D01*
X49583Y-39776D01*
X49730Y-39678D01*
X49828Y-39531D01*
X49846Y-39442D01*
X49846Y-40274D01*
X49828Y-40185D01*
X49730Y-40038D01*
X49583Y-39939D01*
X49410Y-39905D01*
X48991Y-39905D01*
X48817Y-39939D01*
X48671Y-40038D01*
X48572Y-40185D01*
X48538Y-40358D01*
X48572Y-40531D01*
X48671Y-40678D01*
X48817Y-40776D01*
X48991Y-40811D01*
X49410Y-40811D01*
X49583Y-40776D01*
X49730Y-40678D01*
X49828Y-40531D01*
X49846Y-40442D01*
X49846Y-40858D01*
X49846Y-42879D01*
X49727Y-42998D01*
X49641Y-43127D01*
X49641Y-43127D01*
X49588Y-43162D01*
X49426Y-43405D01*
X49369Y-43691D01*
X49369Y-44524D01*
X49426Y-44810D01*
X49588Y-45053D01*
X49831Y-45215D01*
X50117Y-45272D01*
X50403Y-45215D01*
X50646Y-45053D01*
X50808Y-44810D01*
X50842Y-44638D01*
X50879Y-44829D01*
X51065Y-45109D01*
X51301Y-45241D01*
X51421Y-45228D01*
X51421Y-44364D01*
X51413Y-44364D01*
X51413Y-43852D01*
X51421Y-43852D01*
X51421Y-42988D01*
X51301Y-42974D01*
X51065Y-43107D01*
X50879Y-43387D01*
X50842Y-43577D01*
X50817Y-43452D01*
X50906Y-43319D01*
X50948Y-43108D01*
X50948Y-43108D01*
X50948Y-41409D01*
X51397Y-41409D01*
X51608Y-41367D01*
X51693Y-41311D01*
X51804Y-41311D01*
X51977Y-41276D01*
X52124Y-41178D01*
X52222Y-41031D01*
X52256Y-40858D01*
X52222Y-40685D01*
X52124Y-40538D01*
X51977Y-40439D01*
X51804Y-40405D01*
X51693Y-40405D01*
X51608Y-40349D01*
X51417Y-40311D01*
X51804Y-40311D01*
X51977Y-40276D01*
X52124Y-40178D01*
X52222Y-40031D01*
X52256Y-39858D01*
X52222Y-39685D01*
X52124Y-39538D01*
X51977Y-39439D01*
X51804Y-39405D01*
X51384Y-39405D01*
X51211Y-39439D01*
X51064Y-39538D01*
X50966Y-39685D01*
X50948Y-39774D01*
X50948Y-38942D01*
X50966Y-39031D01*
X51064Y-39178D01*
X51211Y-39276D01*
X51384Y-39311D01*
X51804Y-39311D01*
X51977Y-39276D01*
X52124Y-39178D01*
X52222Y-39031D01*
X52256Y-38858D01*
X52222Y-38685D01*
X52124Y-38538D01*
X51977Y-38439D01*
X51804Y-38405D01*
X51384Y-38405D01*
X51211Y-38439D01*
X51064Y-38538D01*
X50966Y-38685D01*
X50948Y-38774D01*
X50948Y-37942D01*
X50966Y-38031D01*
X51064Y-38178D01*
X51211Y-38276D01*
X51384Y-38311D01*
X51804Y-38311D01*
X51977Y-38276D01*
X52124Y-38178D01*
X52222Y-38031D01*
X52256Y-37858D01*
X52222Y-37685D01*
X52124Y-37538D01*
X51977Y-37439D01*
X51804Y-37405D01*
X51384Y-37405D01*
X51211Y-37439D01*
X51064Y-37538D01*
X50966Y-37685D01*
X50948Y-37774D01*
X50948Y-36942D01*
X50966Y-37031D01*
X51064Y-37178D01*
X51211Y-37276D01*
X51384Y-37311D01*
X51804Y-37311D01*
X51977Y-37276D01*
X52124Y-37178D01*
X52222Y-37031D01*
X52256Y-36858D01*
X52222Y-36685D01*
X52124Y-36538D01*
X51977Y-36439D01*
X51804Y-36405D01*
X51384Y-36405D01*
X51211Y-36439D01*
X51064Y-36538D01*
X50966Y-36685D01*
X50948Y-36774D01*
X50948Y-36129D01*
X51082Y-36278D01*
X51267Y-36367D01*
X51348Y-36321D01*
X51348Y-36005D01*
X51330Y-36005D01*
X51330Y-35710D01*
X51348Y-35710D01*
X51348Y-35394D01*
X51267Y-35349D01*
X51082Y-35437D01*
X50948Y-35586D01*
X50948Y-34942D01*
X50966Y-35031D01*
X51064Y-35178D01*
X51211Y-35276D01*
X51384Y-35311D01*
X51804Y-35311D01*
X51977Y-35276D01*
X52124Y-35178D01*
X52222Y-35031D01*
X52256Y-34858D01*
X52256Y-33858D01*
X52222Y-33685D01*
X52124Y-33538D01*
X51977Y-33439D01*
X51804Y-33405D01*
X51592Y-33405D01*
X51592Y-29421D01*
X51449Y-29073D01*
X51183Y-28807D01*
X50836Y-28663D01*
X50460Y-28663D01*
X50113Y-28806D01*
X49847Y-29072D01*
X49702Y-29419D01*
X49702Y-29795D01*
X49846Y-30142D01*
X50111Y-30408D01*
X50458Y-30552D01*
X50834Y-30553D01*
X51182Y-30409D01*
X51448Y-30144D01*
X51592Y-29797D01*
X51592Y-29421D01*
X51592Y-33405D01*
X51384Y-33405D01*
X51211Y-33439D01*
X51064Y-33538D01*
X50966Y-33685D01*
X50932Y-33858D01*
X50966Y-34031D01*
X51064Y-34178D01*
X51211Y-34276D01*
X51384Y-34311D01*
X51804Y-34311D01*
X51977Y-34276D01*
X52124Y-34178D01*
X52222Y-34031D01*
X52256Y-33858D01*
X52256Y-34858D01*
X52222Y-34685D01*
X52124Y-34538D01*
X51977Y-34439D01*
X51804Y-34405D01*
X51384Y-34405D01*
X51211Y-34439D01*
X51064Y-34538D01*
X50966Y-34685D01*
X50940Y-34816D01*
X50906Y-34647D01*
X50787Y-34468D01*
X50787Y-34468D01*
X50287Y-33968D01*
X50108Y-33849D01*
X49897Y-33807D01*
X49694Y-33807D01*
X49694Y-29596D01*
X49619Y-29218D01*
X49502Y-29115D01*
X49140Y-29477D01*
X49140Y-28753D01*
X49037Y-28636D01*
X48635Y-28561D01*
X48257Y-28636D01*
X48154Y-28753D01*
X48647Y-29246D01*
X49140Y-28753D01*
X49140Y-29477D01*
X49009Y-29608D01*
X49502Y-30101D01*
X49619Y-29997D01*
X49694Y-29596D01*
X49694Y-33807D01*
X49397Y-33807D01*
X49186Y-33849D01*
X49140Y-33879D01*
X49140Y-30463D01*
X48647Y-29970D01*
X48285Y-30332D01*
X48285Y-29608D01*
X47792Y-29115D01*
X47675Y-29218D01*
X47648Y-29365D01*
X47619Y-29218D01*
X47502Y-29115D01*
X47140Y-29477D01*
X47140Y-28753D01*
X47037Y-28636D01*
X46635Y-28561D01*
X46257Y-28636D01*
X46154Y-28753D01*
X46647Y-29246D01*
X47140Y-28753D01*
X47140Y-29477D01*
X47009Y-29608D01*
X47502Y-30101D01*
X47619Y-29997D01*
X47646Y-29851D01*
X47675Y-29997D01*
X47792Y-30101D01*
X48285Y-29608D01*
X48285Y-30332D01*
X48154Y-30463D01*
X48257Y-30579D01*
X48659Y-30655D01*
X49037Y-30579D01*
X49140Y-30463D01*
X49140Y-33879D01*
X49102Y-33905D01*
X48991Y-33905D01*
X48817Y-33939D01*
X48671Y-34038D01*
X48572Y-34185D01*
X48538Y-34358D01*
X48572Y-34531D01*
X48671Y-34678D01*
X48817Y-34776D01*
X48971Y-34807D01*
X48100Y-34807D01*
X48100Y-32768D01*
X48031Y-32602D01*
X47904Y-32474D01*
X47738Y-32405D01*
X47557Y-32405D01*
X47391Y-32474D01*
X47264Y-32601D01*
X47194Y-32767D01*
X47194Y-32947D01*
X47263Y-33114D01*
X47390Y-33241D01*
X47557Y-33310D01*
X47737Y-33311D01*
X47903Y-33242D01*
X48031Y-33115D01*
X48100Y-32948D01*
X48100Y-32768D01*
X48100Y-34807D01*
X47140Y-34807D01*
X47140Y-30463D01*
X46647Y-29970D01*
X46285Y-30332D01*
X46285Y-29608D01*
X45792Y-29115D01*
X45675Y-29218D01*
X45600Y-29620D01*
X45675Y-29997D01*
X45792Y-30101D01*
X46285Y-29608D01*
X46285Y-30332D01*
X46154Y-30463D01*
X46257Y-30579D01*
X46659Y-30655D01*
X47037Y-30579D01*
X47140Y-30463D01*
X47140Y-34807D01*
X47100Y-34807D01*
X47100Y-32768D01*
X47031Y-32602D01*
X46904Y-32474D01*
X46738Y-32405D01*
X46557Y-32405D01*
X46391Y-32474D01*
X46264Y-32601D01*
X46194Y-32767D01*
X46194Y-32947D01*
X46263Y-33114D01*
X46390Y-33241D01*
X46557Y-33310D01*
X46737Y-33311D01*
X46903Y-33242D01*
X47031Y-33115D01*
X47100Y-32948D01*
X47100Y-32768D01*
X47100Y-34807D01*
X45592Y-34807D01*
X45592Y-29421D01*
X45449Y-29073D01*
X45183Y-28807D01*
X44836Y-28663D01*
X44460Y-28663D01*
X44113Y-28806D01*
X43847Y-29072D01*
X43702Y-29419D01*
X43702Y-29795D01*
X43846Y-30142D01*
X44111Y-30408D01*
X44458Y-30552D01*
X44834Y-30553D01*
X45182Y-30409D01*
X45448Y-30144D01*
X45592Y-29797D01*
X45592Y-29421D01*
X45592Y-34807D01*
X45267Y-34807D01*
X45267Y-31383D01*
X45235Y-31222D01*
X45153Y-31181D01*
X44914Y-31419D01*
X45153Y-31657D01*
X45235Y-31615D01*
X45267Y-31383D01*
X45267Y-34807D01*
X45155Y-34807D01*
X45155Y-32696D01*
X45078Y-32510D01*
X44935Y-32367D01*
X44905Y-32354D01*
X44905Y-31905D01*
X44905Y-30933D01*
X44863Y-30851D01*
X44631Y-30819D01*
X44471Y-30851D01*
X44429Y-30933D01*
X44667Y-31171D01*
X44905Y-30933D01*
X44905Y-31905D01*
X44667Y-31666D01*
X44429Y-31905D01*
X44471Y-31987D01*
X44703Y-32019D01*
X44863Y-31987D01*
X44905Y-31905D01*
X44905Y-32354D01*
X44749Y-32289D01*
X44547Y-32289D01*
X44419Y-32342D01*
X44419Y-31419D01*
X44181Y-31181D01*
X44099Y-31222D01*
X44067Y-31455D01*
X44099Y-31615D01*
X44181Y-31657D01*
X44419Y-31419D01*
X44419Y-32342D01*
X44360Y-32366D01*
X44217Y-32509D01*
X44140Y-32695D01*
X44140Y-32897D01*
X44217Y-33084D01*
X44359Y-33227D01*
X44546Y-33304D01*
X44748Y-33304D01*
X44934Y-33227D01*
X45077Y-33085D01*
X45155Y-32898D01*
X45155Y-32696D01*
X45155Y-34807D01*
X44147Y-34807D01*
X44100Y-34816D01*
X44100Y-33768D01*
X44031Y-33602D01*
X43904Y-33474D01*
X43738Y-33405D01*
X43557Y-33405D01*
X43391Y-33474D01*
X43264Y-33601D01*
X43194Y-33767D01*
X43194Y-33947D01*
X43263Y-34114D01*
X43390Y-34241D01*
X43557Y-34310D01*
X43737Y-34311D01*
X43903Y-34242D01*
X44031Y-34115D01*
X44100Y-33948D01*
X44100Y-33768D01*
X44100Y-34816D01*
X43936Y-34849D01*
X43757Y-34968D01*
X42324Y-36401D01*
X42324Y-28535D01*
X52972Y-28535D01*
X52972Y-47066D01*
X52972Y-47066D01*
G37*
G54D27*
X52972Y-47066D02*
X52539Y-47066D01*
X52539Y-44498D01*
X52539Y-43717D01*
X52475Y-43387D01*
X52289Y-43107D01*
X52275Y-43099D01*
X52275Y-36084D01*
X52275Y-35632D01*
X52243Y-35590D01*
X52106Y-35437D01*
X51921Y-35349D01*
X51840Y-35394D01*
X51840Y-35710D01*
X52242Y-35710D01*
X52275Y-35632D01*
X52275Y-36084D01*
X52242Y-36005D01*
X51840Y-36005D01*
X51840Y-36321D01*
X51921Y-36367D01*
X52106Y-36278D01*
X52243Y-36125D01*
X52275Y-36084D01*
X52275Y-43099D01*
X52053Y-42974D01*
X51933Y-42988D01*
X51933Y-43852D01*
X52468Y-43852D01*
X52539Y-43717D01*
X52539Y-44498D01*
X52468Y-44364D01*
X51933Y-44364D01*
X51933Y-45228D01*
X52053Y-45241D01*
X52289Y-45109D01*
X52475Y-44829D01*
X52539Y-44498D01*
X52539Y-47066D01*
X48981Y-47066D01*
X48981Y-45826D01*
X48949Y-45664D01*
X48889Y-45634D01*
X48889Y-44760D01*
X48814Y-44579D01*
X48676Y-44441D01*
X48495Y-44366D01*
X48300Y-44366D01*
X48119Y-44440D01*
X48100Y-44459D01*
X48100Y-41768D01*
X48100Y-37768D01*
X48031Y-37602D01*
X47904Y-37474D01*
X47738Y-37405D01*
X47557Y-37405D01*
X47391Y-37474D01*
X47264Y-37601D01*
X47194Y-37767D01*
X47194Y-37947D01*
X47263Y-38114D01*
X47390Y-38241D01*
X47557Y-38310D01*
X47737Y-38311D01*
X47903Y-38242D01*
X48031Y-38115D01*
X48100Y-37948D01*
X48100Y-37768D01*
X48100Y-41768D01*
X48031Y-41602D01*
X47904Y-41474D01*
X47738Y-41405D01*
X47557Y-41405D01*
X47391Y-41474D01*
X47264Y-41601D01*
X47194Y-41767D01*
X47194Y-41947D01*
X47263Y-42114D01*
X47390Y-42241D01*
X47557Y-42310D01*
X47737Y-42311D01*
X47903Y-42242D01*
X48031Y-42115D01*
X48100Y-41948D01*
X48100Y-41768D01*
X48100Y-44459D01*
X47980Y-44579D01*
X47905Y-44759D01*
X47905Y-44955D01*
X47980Y-45136D01*
X48118Y-45275D01*
X48201Y-45309D01*
X48163Y-45387D01*
X48397Y-45621D01*
X48631Y-45387D01*
X48593Y-45309D01*
X48675Y-45275D01*
X48814Y-45137D01*
X48889Y-44956D01*
X48889Y-44760D01*
X48889Y-45634D01*
X48867Y-45624D01*
X48634Y-45858D01*
X48867Y-46092D01*
X48949Y-46052D01*
X48981Y-45826D01*
X48981Y-47066D01*
X48631Y-47066D01*
X48631Y-46328D01*
X48397Y-46094D01*
X48163Y-46328D01*
X48203Y-46410D01*
X48429Y-46442D01*
X48591Y-46410D01*
X48631Y-46328D01*
X48631Y-47066D01*
X48161Y-47066D01*
X48161Y-45858D01*
X47927Y-45624D01*
X47897Y-45638D01*
X47889Y-45634D01*
X47889Y-44760D01*
X47814Y-44579D01*
X47676Y-44441D01*
X47495Y-44366D01*
X47300Y-44366D01*
X47119Y-44440D01*
X47100Y-44459D01*
X47100Y-41768D01*
X47100Y-37768D01*
X47031Y-37602D01*
X46904Y-37474D01*
X46738Y-37405D01*
X46557Y-37405D01*
X46391Y-37474D01*
X46264Y-37601D01*
X46194Y-37767D01*
X46194Y-37947D01*
X46263Y-38114D01*
X46390Y-38241D01*
X46557Y-38310D01*
X46737Y-38311D01*
X46903Y-38242D01*
X47031Y-38115D01*
X47100Y-37948D01*
X47100Y-37768D01*
X47100Y-41768D01*
X47031Y-41602D01*
X46904Y-41474D01*
X46738Y-41405D01*
X46557Y-41405D01*
X46391Y-41474D01*
X46264Y-41601D01*
X46194Y-41767D01*
X46194Y-41947D01*
X46263Y-42114D01*
X46390Y-42241D01*
X46557Y-42310D01*
X46737Y-42311D01*
X46903Y-42242D01*
X47031Y-42115D01*
X47100Y-41948D01*
X47100Y-41768D01*
X47100Y-44459D01*
X46980Y-44579D01*
X46905Y-44759D01*
X46905Y-44955D01*
X46980Y-45136D01*
X47118Y-45275D01*
X47201Y-45309D01*
X47163Y-45387D01*
X47397Y-45621D01*
X47631Y-45387D01*
X47593Y-45309D01*
X47675Y-45275D01*
X47814Y-45137D01*
X47889Y-44956D01*
X47889Y-44760D01*
X47889Y-45634D01*
X47867Y-45624D01*
X47634Y-45858D01*
X47867Y-46092D01*
X47897Y-46077D01*
X47927Y-46092D01*
X48161Y-45858D01*
X48161Y-47066D01*
X47631Y-47066D01*
X47631Y-46328D01*
X47397Y-46094D01*
X47163Y-46328D01*
X47203Y-46410D01*
X47429Y-46442D01*
X47591Y-46410D01*
X47631Y-46328D01*
X47631Y-47066D01*
X47161Y-47066D01*
X47161Y-45858D01*
X46927Y-45624D01*
X46845Y-45664D01*
X46813Y-45890D01*
X46845Y-46052D01*
X46927Y-46092D01*
X47161Y-45858D01*
X47161Y-47066D01*
X43861Y-47066D01*
X43861Y-45228D01*
X43861Y-44364D01*
X43861Y-43852D01*
X43861Y-42988D01*
X43741Y-42974D01*
X43505Y-43107D01*
X43319Y-43387D01*
X43255Y-43717D01*
X43326Y-43852D01*
X43861Y-43852D01*
X43861Y-44364D01*
X43326Y-44364D01*
X43255Y-44498D01*
X43319Y-44829D01*
X43505Y-45109D01*
X43741Y-45241D01*
X43861Y-45228D01*
X43861Y-47066D01*
X42165Y-47066D01*
X42165Y-46781D01*
X42215Y-46771D01*
X42272Y-46733D01*
X42311Y-46676D01*
X42324Y-46608D01*
X42324Y-40564D01*
X45058Y-43298D01*
X44986Y-43405D01*
X44952Y-43577D01*
X44915Y-43387D01*
X44729Y-43107D01*
X44493Y-42974D01*
X44373Y-42988D01*
X44373Y-43852D01*
X44381Y-43852D01*
X44381Y-44364D01*
X44373Y-44364D01*
X44373Y-45228D01*
X44493Y-45241D01*
X44729Y-45109D01*
X44915Y-44829D01*
X44952Y-44638D01*
X44986Y-44810D01*
X45148Y-45053D01*
X45391Y-45215D01*
X45677Y-45272D01*
X45963Y-45215D01*
X46206Y-45053D01*
X46368Y-44810D01*
X46425Y-44524D01*
X46425Y-43691D01*
X46368Y-43405D01*
X46228Y-43196D01*
X46228Y-43138D01*
X46192Y-42954D01*
X46192Y-40337D01*
X46158Y-40169D01*
X46078Y-40135D01*
X45870Y-40344D01*
X45870Y-39926D01*
X45836Y-39846D01*
X45626Y-39813D01*
X45458Y-39846D01*
X45425Y-39926D01*
X45647Y-40149D01*
X45870Y-39926D01*
X45870Y-40344D01*
X45856Y-40358D01*
X46078Y-40580D01*
X46158Y-40547D01*
X46192Y-40337D01*
X46192Y-42954D01*
X46186Y-42927D01*
X46067Y-42748D01*
X46067Y-42748D01*
X45870Y-42551D01*
X45870Y-40789D01*
X45647Y-40567D01*
X45438Y-40775D01*
X45438Y-40358D01*
X45216Y-40135D01*
X45147Y-40164D01*
X45078Y-40135D01*
X44870Y-40344D01*
X44870Y-39926D01*
X44836Y-39846D01*
X44626Y-39813D01*
X44458Y-39846D01*
X44425Y-39926D01*
X44647Y-40149D01*
X44870Y-39926D01*
X44870Y-40344D01*
X44856Y-40358D01*
X45078Y-40580D01*
X45147Y-40551D01*
X45216Y-40580D01*
X45438Y-40358D01*
X45438Y-40775D01*
X45425Y-40789D01*
X45458Y-40869D01*
X45668Y-40902D01*
X45836Y-40869D01*
X45870Y-40789D01*
X45870Y-42551D01*
X44870Y-41551D01*
X44870Y-40789D01*
X44647Y-40567D01*
X44438Y-40775D01*
X44438Y-40358D01*
X44216Y-40135D01*
X44136Y-40169D01*
X44102Y-40379D01*
X44136Y-40547D01*
X44216Y-40580D01*
X44438Y-40358D01*
X44438Y-40775D01*
X44425Y-40789D01*
X44458Y-40869D01*
X44668Y-40902D01*
X44836Y-40869D01*
X44870Y-40789D01*
X44870Y-41551D01*
X43669Y-40350D01*
X43745Y-40350D01*
X43925Y-40275D01*
X44064Y-40137D01*
X44139Y-39956D01*
X44139Y-39760D01*
X44064Y-39579D01*
X43926Y-39441D01*
X43745Y-39366D01*
X43550Y-39366D01*
X43369Y-39440D01*
X43230Y-39579D01*
X43221Y-39602D01*
X43198Y-39602D01*
X43198Y-39060D01*
X43230Y-39136D01*
X43368Y-39275D01*
X43549Y-39350D01*
X43745Y-39350D01*
X43925Y-39275D01*
X44064Y-39137D01*
X44139Y-38956D01*
X44139Y-38760D01*
X44064Y-38579D01*
X43926Y-38441D01*
X43745Y-38366D01*
X43550Y-38366D01*
X43369Y-38440D01*
X43230Y-38579D01*
X43198Y-38656D01*
X43198Y-37957D01*
X43263Y-38114D01*
X43390Y-38241D01*
X43557Y-38310D01*
X43737Y-38311D01*
X43903Y-38242D01*
X44031Y-38115D01*
X44100Y-37948D01*
X44100Y-37768D01*
X44031Y-37602D01*
X43904Y-37474D01*
X43738Y-37405D01*
X43557Y-37405D01*
X43391Y-37474D01*
X43264Y-37601D01*
X43198Y-37758D01*
X43198Y-37086D01*
X44375Y-35909D01*
X44548Y-35909D01*
X44391Y-35974D01*
X44264Y-36101D01*
X44194Y-36267D01*
X44194Y-36447D01*
X44263Y-36614D01*
X44390Y-36741D01*
X44557Y-36810D01*
X44737Y-36811D01*
X44903Y-36742D01*
X45031Y-36615D01*
X45100Y-36448D01*
X45100Y-36268D01*
X45031Y-36102D01*
X44904Y-35974D01*
X44747Y-35909D01*
X45548Y-35909D01*
X45391Y-35974D01*
X45264Y-36101D01*
X45194Y-36267D01*
X45194Y-36447D01*
X45263Y-36614D01*
X45390Y-36741D01*
X45557Y-36810D01*
X45737Y-36811D01*
X45903Y-36742D01*
X46031Y-36615D01*
X46031Y-36614D01*
X46258Y-36614D01*
X46194Y-36767D01*
X46194Y-36947D01*
X46263Y-37114D01*
X46390Y-37241D01*
X46557Y-37310D01*
X46737Y-37311D01*
X46903Y-37242D01*
X47031Y-37115D01*
X47100Y-36948D01*
X47100Y-36768D01*
X47036Y-36614D01*
X47258Y-36614D01*
X47194Y-36767D01*
X47194Y-36947D01*
X47263Y-37114D01*
X47390Y-37241D01*
X47557Y-37310D01*
X47737Y-37311D01*
X47903Y-37242D01*
X48031Y-37115D01*
X48100Y-36948D01*
X48100Y-36922D01*
X48539Y-37361D01*
X48572Y-37531D01*
X48671Y-37678D01*
X48817Y-37776D01*
X48991Y-37811D01*
X49410Y-37811D01*
X49583Y-37776D01*
X49730Y-37678D01*
X49828Y-37531D01*
X49846Y-37442D01*
X49846Y-38086D01*
X49712Y-37937D01*
X49528Y-37849D01*
X49446Y-37894D01*
X49446Y-38210D01*
X49464Y-38210D01*
X49464Y-38505D01*
X49446Y-38505D01*
X49446Y-38821D01*
X49528Y-38867D01*
X49712Y-38778D01*
X49846Y-38629D01*
X49846Y-39274D01*
X49828Y-39185D01*
X49730Y-39038D01*
X49583Y-38939D01*
X49410Y-38905D01*
X48991Y-38905D01*
X48954Y-38912D01*
X48954Y-38821D01*
X48954Y-38505D01*
X48954Y-38210D01*
X48954Y-37894D01*
X48873Y-37849D01*
X48688Y-37937D01*
X48551Y-38090D01*
X48519Y-38132D01*
X48552Y-38210D01*
X48954Y-38210D01*
X48954Y-38505D01*
X48552Y-38505D01*
X48519Y-38584D01*
X48551Y-38625D01*
X48688Y-38778D01*
X48873Y-38867D01*
X48954Y-38821D01*
X48954Y-38912D01*
X48817Y-38939D01*
X48671Y-39038D01*
X48572Y-39185D01*
X48538Y-39358D01*
X48572Y-39531D01*
X48671Y-39678D01*
X48817Y-39776D01*
X48991Y-39811D01*
X49410Y-39811D01*
X49583Y-39776D01*
X49730Y-39678D01*
X49828Y-39531D01*
X49846Y-39442D01*
X49846Y-40274D01*
X49828Y-40185D01*
X49730Y-40038D01*
X49583Y-39939D01*
X49410Y-39905D01*
X48991Y-39905D01*
X48817Y-39939D01*
X48671Y-40038D01*
X48572Y-40185D01*
X48538Y-40358D01*
X48572Y-40531D01*
X48671Y-40678D01*
X48817Y-40776D01*
X48991Y-40811D01*
X49410Y-40811D01*
X49583Y-40776D01*
X49730Y-40678D01*
X49828Y-40531D01*
X49846Y-40442D01*
X49846Y-40858D01*
X49846Y-42879D01*
X49727Y-42998D01*
X49641Y-43127D01*
X49641Y-43127D01*
X49588Y-43162D01*
X49426Y-43405D01*
X49369Y-43691D01*
X49369Y-44524D01*
X49426Y-44810D01*
X49588Y-45053D01*
X49831Y-45215D01*
X50117Y-45272D01*
X50403Y-45215D01*
X50646Y-45053D01*
X50808Y-44810D01*
X50842Y-44638D01*
X50879Y-44829D01*
X51065Y-45109D01*
X51301Y-45241D01*
X51421Y-45228D01*
X51421Y-44364D01*
X51413Y-44364D01*
X51413Y-43852D01*
X51421Y-43852D01*
X51421Y-42988D01*
X51301Y-42974D01*
X51065Y-43107D01*
X50879Y-43387D01*
X50842Y-43577D01*
X50817Y-43452D01*
X50906Y-43319D01*
X50948Y-43108D01*
X50948Y-43108D01*
X50948Y-41409D01*
X51397Y-41409D01*
X51608Y-41367D01*
X51693Y-41311D01*
X51804Y-41311D01*
X51977Y-41276D01*
X52124Y-41178D01*
X52222Y-41031D01*
X52256Y-40858D01*
X52222Y-40685D01*
X52124Y-40538D01*
X51977Y-40439D01*
X51804Y-40405D01*
X51693Y-40405D01*
X51608Y-40349D01*
X51417Y-40311D01*
X51804Y-40311D01*
X51977Y-40276D01*
X52124Y-40178D01*
X52222Y-40031D01*
X52256Y-39858D01*
X52222Y-39685D01*
X52124Y-39538D01*
X51977Y-39439D01*
X51804Y-39405D01*
X51384Y-39405D01*
X51211Y-39439D01*
X51064Y-39538D01*
X50966Y-39685D01*
X50948Y-39774D01*
X50948Y-38942D01*
X50966Y-39031D01*
X51064Y-39178D01*
X51211Y-39276D01*
X51384Y-39311D01*
X51804Y-39311D01*
X51977Y-39276D01*
X52124Y-39178D01*
X52222Y-39031D01*
X52256Y-38858D01*
X52222Y-38685D01*
X52124Y-38538D01*
X51977Y-38439D01*
X51804Y-38405D01*
X51384Y-38405D01*
X51211Y-38439D01*
X51064Y-38538D01*
X50966Y-38685D01*
X50948Y-38774D01*
X50948Y-37942D01*
X50966Y-38031D01*
X51064Y-38178D01*
X51211Y-38276D01*
X51384Y-38311D01*
X51804Y-38311D01*
X51977Y-38276D01*
X52124Y-38178D01*
X52222Y-38031D01*
X52256Y-37858D01*
X52222Y-37685D01*
X52124Y-37538D01*
X51977Y-37439D01*
X51804Y-37405D01*
X51384Y-37405D01*
X51211Y-37439D01*
X51064Y-37538D01*
X50966Y-37685D01*
X50948Y-37774D01*
X50948Y-36942D01*
X50966Y-37031D01*
X51064Y-37178D01*
X51211Y-37276D01*
X51384Y-37311D01*
X51804Y-37311D01*
X51977Y-37276D01*
X52124Y-37178D01*
X52222Y-37031D01*
X52256Y-36858D01*
X52222Y-36685D01*
X52124Y-36538D01*
X51977Y-36439D01*
X51804Y-36405D01*
X51384Y-36405D01*
X51211Y-36439D01*
X51064Y-36538D01*
X50966Y-36685D01*
X50948Y-36774D01*
X50948Y-36129D01*
X51082Y-36278D01*
X51267Y-36367D01*
X51348Y-36321D01*
X51348Y-36005D01*
X51330Y-36005D01*
X51330Y-35710D01*
X51348Y-35710D01*
X51348Y-35394D01*
X51267Y-35349D01*
X51082Y-35437D01*
X50948Y-35586D01*
X50948Y-34942D01*
X50966Y-35031D01*
X51064Y-35178D01*
X51211Y-35276D01*
X51384Y-35311D01*
X51804Y-35311D01*
X51977Y-35276D01*
X52124Y-35178D01*
X52222Y-35031D01*
X52256Y-34858D01*
X52256Y-33858D01*
X52222Y-33685D01*
X52124Y-33538D01*
X51977Y-33439D01*
X51804Y-33405D01*
X51592Y-33405D01*
X51592Y-29421D01*
X51449Y-29073D01*
X51183Y-28807D01*
X50836Y-28663D01*
X50460Y-28663D01*
X50113Y-28806D01*
X49847Y-29072D01*
X49702Y-29419D01*
X49702Y-29795D01*
X49846Y-30142D01*
X50111Y-30408D01*
X50458Y-30552D01*
X50834Y-30553D01*
X51182Y-30409D01*
X51448Y-30144D01*
X51592Y-29797D01*
X51592Y-29421D01*
X51592Y-33405D01*
X51384Y-33405D01*
X51211Y-33439D01*
X51064Y-33538D01*
X50966Y-33685D01*
X50932Y-33858D01*
X50966Y-34031D01*
X51064Y-34178D01*
X51211Y-34276D01*
X51384Y-34311D01*
X51804Y-34311D01*
X51977Y-34276D01*
X52124Y-34178D01*
X52222Y-34031D01*
X52256Y-33858D01*
X52256Y-34858D01*
X52222Y-34685D01*
X52124Y-34538D01*
X51977Y-34439D01*
X51804Y-34405D01*
X51384Y-34405D01*
X51211Y-34439D01*
X51064Y-34538D01*
X50966Y-34685D01*
X50940Y-34816D01*
X50906Y-34647D01*
X50787Y-34468D01*
X50787Y-34468D01*
X50287Y-33968D01*
X50108Y-33849D01*
X49897Y-33807D01*
X49694Y-33807D01*
X49694Y-29596D01*
X49619Y-29218D01*
X49502Y-29115D01*
X49140Y-29477D01*
X49140Y-28753D01*
X49037Y-28636D01*
X48635Y-28561D01*
X48257Y-28636D01*
X48154Y-28753D01*
X48647Y-29246D01*
X49140Y-28753D01*
X49140Y-29477D01*
X49009Y-29608D01*
X49502Y-30101D01*
X49619Y-29997D01*
X49694Y-29596D01*
X49694Y-33807D01*
X49397Y-33807D01*
X49186Y-33849D01*
X49140Y-33879D01*
X49140Y-30463D01*
X48647Y-29970D01*
X48285Y-30332D01*
X48285Y-29608D01*
X47792Y-29115D01*
X47675Y-29218D01*
X47648Y-29365D01*
X47619Y-29218D01*
X47502Y-29115D01*
X47140Y-29477D01*
X47140Y-28753D01*
X47037Y-28636D01*
X46635Y-28561D01*
X46257Y-28636D01*
X46154Y-28753D01*
X46647Y-29246D01*
X47140Y-28753D01*
X47140Y-29477D01*
X47009Y-29608D01*
X47502Y-30101D01*
X47619Y-29997D01*
X47646Y-29851D01*
X47675Y-29997D01*
X47792Y-30101D01*
X48285Y-29608D01*
X48285Y-30332D01*
X48154Y-30463D01*
X48257Y-30579D01*
X48659Y-30655D01*
X49037Y-30579D01*
X49140Y-30463D01*
X49140Y-33879D01*
X49102Y-33905D01*
X48991Y-33905D01*
X48817Y-33939D01*
X48671Y-34038D01*
X48572Y-34185D01*
X48538Y-34358D01*
X48572Y-34531D01*
X48671Y-34678D01*
X48817Y-34776D01*
X48971Y-34807D01*
X48100Y-34807D01*
X48100Y-32768D01*
X48031Y-32602D01*
X47904Y-32474D01*
X47738Y-32405D01*
X47557Y-32405D01*
X47391Y-32474D01*
X47264Y-32601D01*
X47194Y-32767D01*
X47194Y-32947D01*
X47263Y-33114D01*
X47390Y-33241D01*
X47557Y-33310D01*
X47737Y-33311D01*
X47903Y-33242D01*
X48031Y-33115D01*
X48100Y-32948D01*
X48100Y-32768D01*
X48100Y-34807D01*
X47140Y-34807D01*
X47140Y-30463D01*
X46647Y-29970D01*
X46285Y-30332D01*
X46285Y-29608D01*
X45792Y-29115D01*
X45675Y-29218D01*
X45600Y-29620D01*
X45675Y-29997D01*
X45792Y-30101D01*
X46285Y-29608D01*
X46285Y-30332D01*
X46154Y-30463D01*
X46257Y-30579D01*
X46659Y-30655D01*
X47037Y-30579D01*
X47140Y-30463D01*
X47140Y-34807D01*
X47100Y-34807D01*
X47100Y-32768D01*
X47031Y-32602D01*
X46904Y-32474D01*
X46738Y-32405D01*
X46557Y-32405D01*
X46391Y-32474D01*
X46264Y-32601D01*
X46194Y-32767D01*
X46194Y-32947D01*
X46263Y-33114D01*
X46390Y-33241D01*
X46557Y-33310D01*
X46737Y-33311D01*
X46903Y-33242D01*
X47031Y-33115D01*
X47100Y-32948D01*
X47100Y-32768D01*
X47100Y-34807D01*
X45592Y-34807D01*
X45592Y-29421D01*
X45449Y-29073D01*
X45183Y-28807D01*
X44836Y-28663D01*
X44460Y-28663D01*
X44113Y-28806D01*
X43847Y-29072D01*
X43702Y-29419D01*
X43702Y-29795D01*
X43846Y-30142D01*
X44111Y-30408D01*
X44458Y-30552D01*
X44834Y-30553D01*
X45182Y-30409D01*
X45448Y-30144D01*
X45592Y-29797D01*
X45592Y-29421D01*
X45592Y-34807D01*
X45267Y-34807D01*
X45267Y-31383D01*
X45235Y-31222D01*
X45153Y-31181D01*
X44914Y-31419D01*
X45153Y-31657D01*
X45235Y-31615D01*
X45267Y-31383D01*
X45267Y-34807D01*
X45155Y-34807D01*
X45155Y-32696D01*
X45078Y-32510D01*
X44935Y-32367D01*
X44905Y-32354D01*
X44905Y-31905D01*
X44905Y-30933D01*
X44863Y-30851D01*
X44631Y-30819D01*
X44471Y-30851D01*
X44429Y-30933D01*
X44667Y-31171D01*
X44905Y-30933D01*
X44905Y-31905D01*
X44667Y-31666D01*
X44429Y-31905D01*
X44471Y-31987D01*
X44703Y-32019D01*
X44863Y-31987D01*
X44905Y-31905D01*
X44905Y-32354D01*
X44749Y-32289D01*
X44547Y-32289D01*
X44419Y-32342D01*
X44419Y-31419D01*
X44181Y-31181D01*
X44099Y-31222D01*
X44067Y-31455D01*
X44099Y-31615D01*
X44181Y-31657D01*
X44419Y-31419D01*
X44419Y-32342D01*
X44360Y-32366D01*
X44217Y-32509D01*
X44140Y-32695D01*
X44140Y-32897D01*
X44217Y-33084D01*
X44359Y-33227D01*
X44546Y-33304D01*
X44748Y-33304D01*
X44934Y-33227D01*
X45077Y-33085D01*
X45155Y-32898D01*
X45155Y-32696D01*
X45155Y-34807D01*
X44147Y-34807D01*
X44100Y-34816D01*
X44100Y-33768D01*
X44031Y-33602D01*
X43904Y-33474D01*
X43738Y-33405D01*
X43557Y-33405D01*
X43391Y-33474D01*
X43264Y-33601D01*
X43194Y-33767D01*
X43194Y-33947D01*
X43263Y-34114D01*
X43390Y-34241D01*
X43557Y-34310D01*
X43737Y-34311D01*
X43903Y-34242D01*
X44031Y-34115D01*
X44100Y-33948D01*
X44100Y-33768D01*
X44100Y-34816D01*
X43936Y-34849D01*
X43757Y-34968D01*
X42324Y-36401D01*
X42324Y-28535D01*
X52972Y-28535D01*
X52972Y-47066D01*
G54D10*
G36*
X14547Y-28523D02*
X14921Y-28523D01*
X14921Y-31141D01*
X15694Y-31141D01*
X15694Y-34890D01*
X15725Y-35044D01*
X15787Y-35080D01*
X15787Y-36920D01*
X15787Y-38888D01*
X15871Y-39091D01*
X16025Y-39246D01*
X16228Y-39330D01*
X16249Y-39330D01*
X18102Y-41183D01*
X18102Y-43601D01*
X18177Y-43782D01*
X18315Y-43920D01*
X18496Y-43995D01*
X18691Y-43996D01*
X18872Y-43921D01*
X19011Y-43782D01*
X19045Y-43699D01*
X19124Y-43737D01*
X19357Y-43503D01*
X19124Y-43270D01*
X19045Y-43308D01*
X19011Y-43225D01*
X18873Y-43087D01*
X18692Y-43012D01*
X18497Y-43011D01*
X18316Y-43086D01*
X18177Y-43224D01*
X18102Y-43405D01*
X18102Y-43601D01*
X18102Y-41183D01*
X18380Y-41461D01*
X18527Y-41560D01*
X18700Y-41594D01*
X19360Y-41594D01*
X19360Y-43033D01*
X19360Y-43974D01*
X19400Y-44055D01*
X19626Y-44088D01*
X19788Y-44055D01*
X19828Y-43974D01*
X19594Y-43740D01*
X19360Y-43974D01*
X19360Y-43033D01*
X19594Y-43267D01*
X19828Y-43033D01*
X19788Y-42952D01*
X19562Y-42919D01*
X19400Y-42952D01*
X19360Y-43033D01*
X19360Y-41594D01*
X19831Y-41594D01*
X19831Y-43503D01*
X20064Y-43737D01*
X20146Y-43698D01*
X20178Y-43472D01*
X20146Y-43309D01*
X20064Y-43270D01*
X19831Y-43503D01*
X19831Y-41594D01*
X20766Y-41594D01*
X20766Y-43535D01*
X20798Y-43698D01*
X20880Y-43737D01*
X21113Y-43503D01*
X20880Y-43270D01*
X20798Y-43309D01*
X20766Y-43535D01*
X20766Y-41594D01*
X21116Y-41594D01*
X21116Y-43033D01*
X21116Y-43974D01*
X21156Y-44055D01*
X21382Y-44088D01*
X21544Y-44055D01*
X21584Y-43974D01*
X21350Y-43740D01*
X21116Y-43974D01*
X21116Y-43033D01*
X21350Y-43267D01*
X21584Y-43033D01*
X21544Y-42952D01*
X21318Y-42919D01*
X21156Y-42952D01*
X21116Y-43033D01*
X21116Y-41594D01*
X21586Y-41594D01*
X21586Y-43503D01*
X21820Y-43737D01*
X21899Y-43699D01*
X21933Y-43782D01*
X22071Y-43920D01*
X22252Y-43995D01*
X22447Y-43996D01*
X22628Y-43921D01*
X22767Y-43782D01*
X22842Y-43602D01*
X22842Y-43406D01*
X22767Y-43225D01*
X22629Y-43087D01*
X22448Y-43012D01*
X22252Y-43011D01*
X22072Y-43086D01*
X21933Y-43224D01*
X21899Y-43308D01*
X21820Y-43270D01*
X21586Y-43503D01*
X21586Y-41594D01*
X24853Y-41594D01*
X24985Y-41649D01*
X25187Y-41649D01*
X25373Y-41572D01*
X25516Y-41429D01*
X25594Y-41243D01*
X25594Y-41041D01*
X25517Y-40854D01*
X25374Y-40711D01*
X25188Y-40634D01*
X24986Y-40634D01*
X24853Y-40688D01*
X18888Y-40688D01*
X16889Y-38690D01*
X16889Y-38670D01*
X16806Y-38467D01*
X16651Y-38312D01*
X16448Y-38228D01*
X16229Y-38228D01*
X16026Y-38311D01*
X15871Y-38466D01*
X15787Y-38669D01*
X15787Y-38888D01*
X15787Y-36920D01*
X15871Y-37122D01*
X16025Y-37278D01*
X16228Y-37362D01*
X16447Y-37362D01*
X16650Y-37278D01*
X16805Y-37123D01*
X16889Y-36921D01*
X16889Y-36701D01*
X16806Y-36499D01*
X16651Y-36344D01*
X16448Y-36259D01*
X16229Y-36259D01*
X16026Y-36343D01*
X15871Y-36498D01*
X15787Y-36700D01*
X15787Y-36920D01*
X15787Y-35080D01*
X15809Y-35093D01*
X16060Y-34842D01*
X15809Y-34591D01*
X15725Y-34640D01*
X15694Y-34890D01*
X15694Y-31141D01*
X16087Y-31141D01*
X16087Y-34313D01*
X16087Y-35371D01*
X16136Y-35455D01*
X16386Y-35486D01*
X16540Y-35455D01*
X16589Y-35371D01*
X16338Y-35120D01*
X16087Y-35371D01*
X16087Y-34313D01*
X16338Y-34564D01*
X16589Y-34313D01*
X16540Y-34229D01*
X16290Y-34198D01*
X16136Y-34229D01*
X16087Y-34313D01*
X16087Y-31141D01*
X16616Y-31141D01*
X16616Y-34842D01*
X16867Y-35093D01*
X16951Y-35044D01*
X16982Y-34794D01*
X16951Y-34640D01*
X16867Y-34591D01*
X16616Y-34842D01*
X16616Y-31141D01*
X17755Y-31141D01*
X17755Y-28523D01*
X19631Y-28523D01*
X19631Y-34890D01*
X19662Y-35044D01*
X19724Y-35080D01*
X19724Y-36920D01*
X19724Y-38888D01*
X19808Y-39091D01*
X19962Y-39246D01*
X20165Y-39330D01*
X20384Y-39330D01*
X20587Y-39247D01*
X20742Y-39092D01*
X20826Y-38889D01*
X20826Y-38868D01*
X25406Y-34288D01*
X25504Y-34141D01*
X25539Y-33968D01*
X25539Y-32713D01*
X25594Y-32581D01*
X25594Y-32379D01*
X25517Y-32193D01*
X25374Y-32050D01*
X25188Y-31972D01*
X24986Y-31972D01*
X24799Y-32049D01*
X24656Y-32192D01*
X24579Y-32378D01*
X24579Y-32580D01*
X24633Y-32713D01*
X24633Y-33780D01*
X20186Y-38228D01*
X20166Y-38228D01*
X19963Y-38311D01*
X19808Y-38466D01*
X19724Y-38669D01*
X19724Y-38888D01*
X19724Y-36920D01*
X19808Y-37122D01*
X19962Y-37278D01*
X20165Y-37362D01*
X20384Y-37362D01*
X20587Y-37278D01*
X20742Y-37123D01*
X20826Y-36921D01*
X20826Y-36701D01*
X20743Y-36499D01*
X20588Y-36344D01*
X20385Y-36259D01*
X20166Y-36259D01*
X19963Y-36343D01*
X19808Y-36498D01*
X19724Y-36700D01*
X19724Y-36920D01*
X19724Y-35080D01*
X19746Y-35093D01*
X19997Y-34842D01*
X19746Y-34591D01*
X19662Y-34640D01*
X19631Y-34890D01*
X19631Y-28523D01*
X20024Y-28523D01*
X20024Y-34313D01*
X20024Y-35371D01*
X20073Y-35455D01*
X20323Y-35486D01*
X20477Y-35455D01*
X20526Y-35371D01*
X20275Y-35120D01*
X20024Y-35371D01*
X20024Y-34313D01*
X20275Y-34564D01*
X20526Y-34313D01*
X20477Y-34229D01*
X20227Y-34198D01*
X20073Y-34229D01*
X20024Y-34313D01*
X20024Y-28523D01*
X20553Y-28523D01*
X20553Y-34842D01*
X20804Y-35093D01*
X20888Y-35044D01*
X20919Y-34794D01*
X20888Y-34640D01*
X20804Y-34591D01*
X20553Y-34842D01*
X20553Y-28523D01*
X38543Y-28523D01*
X38543Y-31141D01*
X38579Y-31141D01*
X38579Y-32580D01*
X38579Y-41242D01*
X38656Y-41428D01*
X38798Y-41571D01*
X38985Y-41649D01*
X39187Y-41649D01*
X39373Y-41572D01*
X39516Y-41429D01*
X39594Y-41243D01*
X39594Y-41041D01*
X39517Y-40854D01*
X39374Y-40711D01*
X39188Y-40634D01*
X38986Y-40634D01*
X38799Y-40711D01*
X38656Y-40853D01*
X38579Y-41040D01*
X38579Y-41242D01*
X38579Y-32580D01*
X38656Y-32767D01*
X38798Y-32910D01*
X38982Y-32986D01*
X38982Y-35374D01*
X38982Y-38311D01*
X39015Y-38473D01*
X39074Y-38502D01*
X39074Y-39376D01*
X39149Y-39557D01*
X39287Y-39696D01*
X39468Y-39771D01*
X39664Y-39771D01*
X39845Y-39696D01*
X39983Y-39558D01*
X40058Y-39377D01*
X40058Y-39182D01*
X39984Y-39001D01*
X39845Y-38862D01*
X39762Y-38828D01*
X39800Y-38749D01*
X39566Y-38516D01*
X39333Y-38749D01*
X39371Y-38828D01*
X39288Y-38862D01*
X39150Y-39000D01*
X39075Y-39181D01*
X39074Y-39376D01*
X39074Y-38502D01*
X39096Y-38513D01*
X39330Y-38279D01*
X39096Y-38045D01*
X39015Y-38085D01*
X38982Y-38311D01*
X38982Y-35374D01*
X39015Y-35536D01*
X39096Y-35576D01*
X39330Y-35342D01*
X39096Y-35108D01*
X39015Y-35148D01*
X38982Y-35374D01*
X38982Y-32986D01*
X38985Y-32987D01*
X39074Y-32987D01*
X39074Y-34439D01*
X39149Y-34620D01*
X39287Y-34759D01*
X39371Y-34793D01*
X39333Y-34872D01*
X39333Y-35812D01*
X39333Y-37809D01*
X39566Y-38043D01*
X39800Y-37809D01*
X39761Y-37727D01*
X39535Y-37695D01*
X39372Y-37727D01*
X39333Y-37809D01*
X39333Y-35812D01*
X39372Y-35894D01*
X39598Y-35926D01*
X39761Y-35894D01*
X39800Y-35812D01*
X39566Y-35579D01*
X39333Y-35812D01*
X39333Y-34872D01*
X39566Y-35105D01*
X39800Y-34872D01*
X39762Y-34793D01*
X39803Y-34777D01*
X39803Y-35342D01*
X39803Y-38279D01*
X40037Y-38513D01*
X40118Y-38473D01*
X40151Y-38247D01*
X40118Y-38085D01*
X40037Y-38045D01*
X39803Y-38279D01*
X39803Y-35342D01*
X40037Y-35576D01*
X40118Y-35536D01*
X40151Y-35310D01*
X40118Y-35148D01*
X40037Y-35108D01*
X39803Y-35342D01*
X39803Y-34777D01*
X39845Y-34759D01*
X39983Y-34621D01*
X40058Y-34440D01*
X40058Y-34245D01*
X39984Y-34064D01*
X39845Y-33925D01*
X39665Y-33850D01*
X39469Y-33850D01*
X39288Y-33925D01*
X39150Y-34063D01*
X39075Y-34244D01*
X39074Y-34439D01*
X39074Y-32987D01*
X39187Y-32987D01*
X39373Y-32910D01*
X39516Y-32768D01*
X39594Y-32581D01*
X39594Y-32379D01*
X39517Y-32193D01*
X39374Y-32050D01*
X39188Y-31972D01*
X38986Y-31972D01*
X38799Y-32049D01*
X38656Y-32192D01*
X38579Y-32378D01*
X38579Y-32580D01*
X38579Y-31141D01*
X41161Y-31141D01*
X41161Y-42480D01*
X38543Y-42480D01*
X38543Y-45098D01*
X17755Y-45098D01*
X17755Y-42480D01*
X14921Y-42480D01*
X14921Y-45098D01*
X14547Y-45098D01*
X14547Y-28523D01*
X14547Y-28523D01*
G37*
G54D27*
X14547Y-28523D02*
X14921Y-28523D01*
X14921Y-31141D01*
X15694Y-31141D01*
X15694Y-34890D01*
X15725Y-35044D01*
X15787Y-35080D01*
X15787Y-36920D01*
X15787Y-38888D01*
X15871Y-39091D01*
X16025Y-39246D01*
X16228Y-39330D01*
X16249Y-39330D01*
X18102Y-41183D01*
X18102Y-43601D01*
X18177Y-43782D01*
X18315Y-43920D01*
X18496Y-43995D01*
X18691Y-43996D01*
X18872Y-43921D01*
X19011Y-43782D01*
X19045Y-43699D01*
X19124Y-43737D01*
X19357Y-43503D01*
X19124Y-43270D01*
X19045Y-43308D01*
X19011Y-43225D01*
X18873Y-43087D01*
X18692Y-43012D01*
X18497Y-43011D01*
X18316Y-43086D01*
X18177Y-43224D01*
X18102Y-43405D01*
X18102Y-43601D01*
X18102Y-41183D01*
X18380Y-41461D01*
X18527Y-41560D01*
X18700Y-41594D01*
X19360Y-41594D01*
X19360Y-43033D01*
X19360Y-43974D01*
X19400Y-44055D01*
X19626Y-44088D01*
X19788Y-44055D01*
X19828Y-43974D01*
X19594Y-43740D01*
X19360Y-43974D01*
X19360Y-43033D01*
X19594Y-43267D01*
X19828Y-43033D01*
X19788Y-42952D01*
X19562Y-42919D01*
X19400Y-42952D01*
X19360Y-43033D01*
X19360Y-41594D01*
X19831Y-41594D01*
X19831Y-43503D01*
X20064Y-43737D01*
X20146Y-43698D01*
X20178Y-43472D01*
X20146Y-43309D01*
X20064Y-43270D01*
X19831Y-43503D01*
X19831Y-41594D01*
X20766Y-41594D01*
X20766Y-43535D01*
X20798Y-43698D01*
X20880Y-43737D01*
X21113Y-43503D01*
X20880Y-43270D01*
X20798Y-43309D01*
X20766Y-43535D01*
X20766Y-41594D01*
X21116Y-41594D01*
X21116Y-43033D01*
X21116Y-43974D01*
X21156Y-44055D01*
X21382Y-44088D01*
X21544Y-44055D01*
X21584Y-43974D01*
X21350Y-43740D01*
X21116Y-43974D01*
X21116Y-43033D01*
X21350Y-43267D01*
X21584Y-43033D01*
X21544Y-42952D01*
X21318Y-42919D01*
X21156Y-42952D01*
X21116Y-43033D01*
X21116Y-41594D01*
X21586Y-41594D01*
X21586Y-43503D01*
X21820Y-43737D01*
X21899Y-43699D01*
X21933Y-43782D01*
X22071Y-43920D01*
X22252Y-43995D01*
X22447Y-43996D01*
X22628Y-43921D01*
X22767Y-43782D01*
X22842Y-43602D01*
X22842Y-43406D01*
X22767Y-43225D01*
X22629Y-43087D01*
X22448Y-43012D01*
X22252Y-43011D01*
X22072Y-43086D01*
X21933Y-43224D01*
X21899Y-43308D01*
X21820Y-43270D01*
X21586Y-43503D01*
X21586Y-41594D01*
X24853Y-41594D01*
X24985Y-41649D01*
X25187Y-41649D01*
X25373Y-41572D01*
X25516Y-41429D01*
X25594Y-41243D01*
X25594Y-41041D01*
X25517Y-40854D01*
X25374Y-40711D01*
X25188Y-40634D01*
X24986Y-40634D01*
X24853Y-40688D01*
X18888Y-40688D01*
X16889Y-38690D01*
X16889Y-38670D01*
X16806Y-38467D01*
X16651Y-38312D01*
X16448Y-38228D01*
X16229Y-38228D01*
X16026Y-38311D01*
X15871Y-38466D01*
X15787Y-38669D01*
X15787Y-38888D01*
X15787Y-36920D01*
X15871Y-37122D01*
X16025Y-37278D01*
X16228Y-37362D01*
X16447Y-37362D01*
X16650Y-37278D01*
X16805Y-37123D01*
X16889Y-36921D01*
X16889Y-36701D01*
X16806Y-36499D01*
X16651Y-36344D01*
X16448Y-36259D01*
X16229Y-36259D01*
X16026Y-36343D01*
X15871Y-36498D01*
X15787Y-36700D01*
X15787Y-36920D01*
X15787Y-35080D01*
X15809Y-35093D01*
X16060Y-34842D01*
X15809Y-34591D01*
X15725Y-34640D01*
X15694Y-34890D01*
X15694Y-31141D01*
X16087Y-31141D01*
X16087Y-34313D01*
X16087Y-35371D01*
X16136Y-35455D01*
X16386Y-35486D01*
X16540Y-35455D01*
X16589Y-35371D01*
X16338Y-35120D01*
X16087Y-35371D01*
X16087Y-34313D01*
X16338Y-34564D01*
X16589Y-34313D01*
X16540Y-34229D01*
X16290Y-34198D01*
X16136Y-34229D01*
X16087Y-34313D01*
X16087Y-31141D01*
X16616Y-31141D01*
X16616Y-34842D01*
X16867Y-35093D01*
X16951Y-35044D01*
X16982Y-34794D01*
X16951Y-34640D01*
X16867Y-34591D01*
X16616Y-34842D01*
X16616Y-31141D01*
X17755Y-31141D01*
X17755Y-28523D01*
X19631Y-28523D01*
X19631Y-34890D01*
X19662Y-35044D01*
X19724Y-35080D01*
X19724Y-36920D01*
X19724Y-38888D01*
X19808Y-39091D01*
X19962Y-39246D01*
X20165Y-39330D01*
X20384Y-39330D01*
X20587Y-39247D01*
X20742Y-39092D01*
X20826Y-38889D01*
X20826Y-38868D01*
X25406Y-34288D01*
X25504Y-34141D01*
X25539Y-33968D01*
X25539Y-32713D01*
X25594Y-32581D01*
X25594Y-32379D01*
X25517Y-32193D01*
X25374Y-32050D01*
X25188Y-31972D01*
X24986Y-31972D01*
X24799Y-32049D01*
X24656Y-32192D01*
X24579Y-32378D01*
X24579Y-32580D01*
X24633Y-32713D01*
X24633Y-33780D01*
X20186Y-38228D01*
X20166Y-38228D01*
X19963Y-38311D01*
X19808Y-38466D01*
X19724Y-38669D01*
X19724Y-38888D01*
X19724Y-36920D01*
X19808Y-37122D01*
X19962Y-37278D01*
X20165Y-37362D01*
X20384Y-37362D01*
X20587Y-37278D01*
X20742Y-37123D01*
X20826Y-36921D01*
X20826Y-36701D01*
X20743Y-36499D01*
X20588Y-36344D01*
X20385Y-36259D01*
X20166Y-36259D01*
X19963Y-36343D01*
X19808Y-36498D01*
X19724Y-36700D01*
X19724Y-36920D01*
X19724Y-35080D01*
X19746Y-35093D01*
X19997Y-34842D01*
X19746Y-34591D01*
X19662Y-34640D01*
X19631Y-34890D01*
X19631Y-28523D01*
X20024Y-28523D01*
X20024Y-34313D01*
X20024Y-35371D01*
X20073Y-35455D01*
X20323Y-35486D01*
X20477Y-35455D01*
X20526Y-35371D01*
X20275Y-35120D01*
X20024Y-35371D01*
X20024Y-34313D01*
X20275Y-34564D01*
X20526Y-34313D01*
X20477Y-34229D01*
X20227Y-34198D01*
X20073Y-34229D01*
X20024Y-34313D01*
X20024Y-28523D01*
X20553Y-28523D01*
X20553Y-34842D01*
X20804Y-35093D01*
X20888Y-35044D01*
X20919Y-34794D01*
X20888Y-34640D01*
X20804Y-34591D01*
X20553Y-34842D01*
X20553Y-28523D01*
X38543Y-28523D01*
X38543Y-31141D01*
X38579Y-31141D01*
X38579Y-32580D01*
X38579Y-41242D01*
X38656Y-41428D01*
X38798Y-41571D01*
X38985Y-41649D01*
X39187Y-41649D01*
X39373Y-41572D01*
X39516Y-41429D01*
X39594Y-41243D01*
X39594Y-41041D01*
X39517Y-40854D01*
X39374Y-40711D01*
X39188Y-40634D01*
X38986Y-40634D01*
X38799Y-40711D01*
X38656Y-40853D01*
X38579Y-41040D01*
X38579Y-41242D01*
X38579Y-32580D01*
X38656Y-32767D01*
X38798Y-32910D01*
X38982Y-32986D01*
X38982Y-35374D01*
X38982Y-38311D01*
X39015Y-38473D01*
X39074Y-38502D01*
X39074Y-39376D01*
X39149Y-39557D01*
X39287Y-39696D01*
X39468Y-39771D01*
X39664Y-39771D01*
X39845Y-39696D01*
X39983Y-39558D01*
X40058Y-39377D01*
X40058Y-39182D01*
X39984Y-39001D01*
X39845Y-38862D01*
X39762Y-38828D01*
X39800Y-38749D01*
X39566Y-38516D01*
X39333Y-38749D01*
X39371Y-38828D01*
X39288Y-38862D01*
X39150Y-39000D01*
X39075Y-39181D01*
X39074Y-39376D01*
X39074Y-38502D01*
X39096Y-38513D01*
X39330Y-38279D01*
X39096Y-38045D01*
X39015Y-38085D01*
X38982Y-38311D01*
X38982Y-35374D01*
X39015Y-35536D01*
X39096Y-35576D01*
X39330Y-35342D01*
X39096Y-35108D01*
X39015Y-35148D01*
X38982Y-35374D01*
X38982Y-32986D01*
X38985Y-32987D01*
X39074Y-32987D01*
X39074Y-34439D01*
X39149Y-34620D01*
X39287Y-34759D01*
X39371Y-34793D01*
X39333Y-34872D01*
X39333Y-35812D01*
X39333Y-37809D01*
X39566Y-38043D01*
X39800Y-37809D01*
X39761Y-37727D01*
X39535Y-37695D01*
X39372Y-37727D01*
X39333Y-37809D01*
X39333Y-35812D01*
X39372Y-35894D01*
X39598Y-35926D01*
X39761Y-35894D01*
X39800Y-35812D01*
X39566Y-35579D01*
X39333Y-35812D01*
X39333Y-34872D01*
X39566Y-35105D01*
X39800Y-34872D01*
X39762Y-34793D01*
X39803Y-34777D01*
X39803Y-35342D01*
X39803Y-38279D01*
X40037Y-38513D01*
X40118Y-38473D01*
X40151Y-38247D01*
X40118Y-38085D01*
X40037Y-38045D01*
X39803Y-38279D01*
X39803Y-35342D01*
X40037Y-35576D01*
X40118Y-35536D01*
X40151Y-35310D01*
X40118Y-35148D01*
X40037Y-35108D01*
X39803Y-35342D01*
X39803Y-34777D01*
X39845Y-34759D01*
X39983Y-34621D01*
X40058Y-34440D01*
X40058Y-34245D01*
X39984Y-34064D01*
X39845Y-33925D01*
X39665Y-33850D01*
X39469Y-33850D01*
X39288Y-33925D01*
X39150Y-34063D01*
X39075Y-34244D01*
X39074Y-34439D01*
X39074Y-32987D01*
X39187Y-32987D01*
X39373Y-32910D01*
X39516Y-32768D01*
X39594Y-32581D01*
X39594Y-32379D01*
X39517Y-32193D01*
X39374Y-32050D01*
X39188Y-31972D01*
X38986Y-31972D01*
X38799Y-32049D01*
X38656Y-32192D01*
X38579Y-32378D01*
X38579Y-32580D01*
X38579Y-31141D01*
X41161Y-31141D01*
X41161Y-42480D01*
X38543Y-42480D01*
X38543Y-45098D01*
X17755Y-45098D01*
X17755Y-42480D01*
X14921Y-42480D01*
X14921Y-45098D01*
X14547Y-45098D01*
X14547Y-28523D01*
M02*
