M48
;DRILL file {Pcbnew (2013-07-07 BZR 4022)-stable} date 27/10/2013 04:34:48
;FORMAT={-:-/ absolute / inch / decimal}
FMAT,2
INCH,TZ
T1C0.032
T2C0.039
T3C0.039
T4C0.047
T5C0.047
T6C0.071
T7C0.079
T8C0.138
%
G90
G05
M72
T1
X3.5539Y-0.8939
X3.9539Y-0.8939
X4.3648Y-3.3858
X4.3648Y-3.7858
X4.4648Y-3.2797
X4.4648Y-3.6358
X4.4648Y-4.0358
X4.4667Y-3.1419
X4.5648Y-3.6358
X4.5648Y-4.0358
X4.6648Y-3.2858
X4.6648Y-3.6858
X4.6648Y-3.7858
X4.6648Y-4.1858
X4.7648Y-3.2858
X4.7648Y-3.6858
X4.7648Y-3.7858
X4.7648Y-4.1858
T2
X2.5087Y-3.248
X2.5087Y-4.1142
X3.9087Y-3.248
X3.9087Y-4.1142
X4.9398Y-3.4358
X4.9398Y-3.5358
X4.9398Y-3.6358
X4.9398Y-3.7358
X4.9398Y-3.8358
X4.9398Y-3.9358
X4.9398Y-4.0358
X5.1398Y-3.3858
X5.1398Y-3.4858
X5.1398Y-3.5858
X5.1398Y-3.6858
X5.1398Y-3.7858
X5.1398Y-3.8858
X5.1398Y-3.9858
X5.1398Y-4.0858
T3
X1.8594Y-4.3504
X1.9594Y-4.3504
X2.135Y-4.3504
X2.235Y-4.3504
X2.3622Y-1.5717
X2.3622Y-1.9717
X3.9567Y-3.4343
X3.9567Y-3.5343
X3.9567Y-3.828
X3.9567Y-3.928
X4.0539Y-0.8939
X4.1539Y-0.8939
X4.3307Y-1.5717
X4.3307Y-1.9717
X4.3648Y-3.8858
X4.3648Y-3.9858
X4.7398Y-4.4858
X4.7398Y-4.5858
X4.8398Y-4.4858
X4.8398Y-4.5858
T4
X3.1496Y-1.1992
X3.1496Y-1.3992
X3.1496Y-2.1441
X3.1496Y-2.3441
X3.5433Y-1.1992
X3.5433Y-1.3992
X3.5433Y-2.1441
X3.5433Y-2.3441
T5
X1.6339Y-3.4843
X1.6339Y-3.6811
X1.6339Y-3.878
X2.0276Y-3.4843
X2.0276Y-3.6811
X2.0276Y-3.878
T6
X1.4961Y-1.6937
X1.4961Y-1.8497
X4.4118Y-4.4108
X4.5678Y-4.4108
X5.0118Y-4.4108
X5.1575Y-1.6937
X5.1575Y-1.8497
X5.1678Y-4.4108
T7
X4.4648Y-2.9608
X4.6648Y-2.9608
X4.8648Y-2.9608
X5.0648Y-2.9608
T8
X1.5748Y-0.9843
X1.5748Y-2.5591
X1.6339Y-2.9724
X1.6339Y-4.3898
X3.9961Y-2.9724
X3.9961Y-4.3898
X5.1181Y-0.9843
X5.1181Y-2.5591
T0
M30
