G04 (created by PCBNEW (2013-07-07 BZR 4022)-stable) date 27/10/2013 04:34:24*
%MOIN*%
G04 Gerber Fmt 3.4, Leading zero omitted, Abs format*
%FSLAX34Y34*%
G01*
G70*
G90*
G04 APERTURE LIST*
%ADD10C,0.00393701*%
%ADD11C,0.00787402*%
%ADD12C,0.00590551*%
%ADD13C,0.0157*%
%ADD14C,0.015*%
%ADD15C,0.0448819*%
%ADD16C,0.023622*%
%ADD17C,0.011811*%
%ADD18C,0.012*%
%ADD19C,0.008*%
G04 APERTURE END LIST*
G54D10*
G54D11*
X53149Y-27559D02*
X13779Y-27559D01*
X41338Y-45275D02*
X41338Y-28346D01*
X42125Y-28346D02*
X42125Y-47244D01*
X14370Y-28346D02*
X53149Y-28346D01*
X47647Y-37858D02*
X47647Y-38258D01*
X47647Y-38258D02*
X48047Y-38258D01*
X48047Y-38258D02*
X48047Y-41458D01*
X48047Y-41458D02*
X47247Y-41458D01*
X47247Y-41458D02*
X47247Y-38258D01*
X47247Y-38258D02*
X47647Y-38258D01*
X47647Y-41858D02*
X47647Y-41458D01*
X45647Y-36358D02*
X45647Y-36758D01*
X45647Y-36758D02*
X46047Y-36758D01*
X46047Y-36758D02*
X46047Y-39958D01*
X46047Y-39958D02*
X45247Y-39958D01*
X45247Y-39958D02*
X45247Y-36758D01*
X45247Y-36758D02*
X45647Y-36758D01*
X45647Y-40358D02*
X45647Y-39958D01*
X47647Y-32858D02*
X47647Y-33258D01*
X47647Y-33258D02*
X48047Y-33258D01*
X48047Y-33258D02*
X48047Y-36458D01*
X48047Y-36458D02*
X47247Y-36458D01*
X47247Y-36458D02*
X47247Y-33258D01*
X47247Y-33258D02*
X47647Y-33258D01*
X47647Y-36858D02*
X47647Y-36458D01*
X46647Y-37858D02*
X46647Y-38258D01*
X46647Y-38258D02*
X47047Y-38258D01*
X47047Y-38258D02*
X47047Y-41458D01*
X47047Y-41458D02*
X46247Y-41458D01*
X46247Y-41458D02*
X46247Y-38258D01*
X46247Y-38258D02*
X46647Y-38258D01*
X46647Y-41858D02*
X46647Y-41458D01*
X44647Y-36358D02*
X44647Y-36758D01*
X44647Y-36758D02*
X45047Y-36758D01*
X45047Y-36758D02*
X45047Y-39958D01*
X45047Y-39958D02*
X44247Y-39958D01*
X44247Y-39958D02*
X44247Y-36758D01*
X44247Y-36758D02*
X44647Y-36758D01*
X44647Y-40358D02*
X44647Y-39958D01*
X46647Y-32858D02*
X46647Y-33258D01*
X46647Y-33258D02*
X47047Y-33258D01*
X47047Y-33258D02*
X47047Y-36458D01*
X47047Y-36458D02*
X46247Y-36458D01*
X46247Y-36458D02*
X46247Y-33258D01*
X46247Y-33258D02*
X46647Y-33258D01*
X46647Y-36858D02*
X46647Y-36458D01*
G54D12*
X51647Y-30608D02*
X51647Y-28608D01*
X51647Y-28608D02*
X47647Y-28608D01*
X47647Y-28608D02*
X47647Y-30608D01*
X47647Y-30608D02*
X51647Y-30608D01*
X43647Y-28608D02*
X43647Y-30608D01*
X43647Y-30608D02*
X47647Y-30608D01*
X47647Y-30608D02*
X47647Y-28608D01*
X47647Y-28608D02*
X43647Y-28608D01*
G54D13*
X48897Y-46358D02*
X48897Y-44358D01*
X47897Y-46358D02*
X47897Y-44358D01*
X47897Y-44358D02*
X48897Y-44358D01*
G54D14*
X47897Y-46358D02*
X48897Y-46358D01*
G54D13*
X47897Y-46358D02*
X47897Y-44358D01*
X46897Y-46358D02*
X46897Y-44358D01*
X46897Y-44358D02*
X47897Y-44358D01*
G54D14*
X46897Y-46358D02*
X47897Y-46358D01*
G54D15*
X50110Y-46864D02*
X50110Y-51509D01*
X51685Y-46864D02*
X51685Y-51509D01*
X50110Y-44108D02*
X50110Y-45368D01*
X51685Y-44108D02*
X51685Y-45368D01*
G54D16*
X52472Y-45486D02*
X52472Y-46746D01*
X49322Y-45486D02*
X49322Y-46746D01*
X52472Y-46745D02*
X49322Y-46745D01*
X52472Y-45486D02*
X49322Y-45486D01*
G54D15*
X44110Y-46864D02*
X44110Y-51509D01*
X45685Y-46864D02*
X45685Y-51509D01*
X44110Y-44108D02*
X44110Y-45368D01*
X45685Y-44108D02*
X45685Y-45368D01*
G54D16*
X46472Y-45486D02*
X46472Y-46746D01*
X43322Y-45486D02*
X43322Y-46746D01*
X46472Y-46745D02*
X43322Y-46745D01*
X46472Y-45486D02*
X43322Y-45486D01*
G54D11*
X43647Y-33858D02*
X43647Y-34258D01*
X43647Y-34258D02*
X44047Y-34258D01*
X44047Y-34258D02*
X44047Y-37458D01*
X44047Y-37458D02*
X43247Y-37458D01*
X43247Y-37458D02*
X43247Y-34258D01*
X43247Y-34258D02*
X43647Y-34258D01*
X43647Y-37858D02*
X43647Y-37458D01*
G54D14*
X45828Y-32108D02*
G75*
G03X45828Y-32108I-1181J0D01*
G74*
G01*
G54D12*
X51791Y-33421D02*
X51791Y-41295D01*
X53090Y-33421D02*
X53090Y-41295D01*
X53090Y-41295D02*
X51318Y-41295D01*
X51318Y-41295D02*
X51318Y-33421D01*
X51318Y-33421D02*
X53090Y-33421D01*
G54D13*
X43147Y-38358D02*
X43147Y-40358D01*
X44147Y-38358D02*
X44147Y-40358D01*
X44147Y-40358D02*
X43147Y-40358D01*
G54D14*
X44147Y-38358D02*
X43147Y-38358D01*
X30622Y-17716D02*
G75*
G03X30622Y-17716I-7000J0D01*
G74*
G01*
X23622Y-14216D02*
X23622Y-13216D01*
X24122Y-13716D02*
X23122Y-13716D01*
X50307Y-17716D02*
G75*
G03X50307Y-17716I-7000J0D01*
G74*
G01*
X43307Y-14216D02*
X43307Y-13216D01*
X43807Y-13716D02*
X42807Y-13716D01*
G54D15*
X12204Y-16929D02*
X7559Y-16929D01*
X12204Y-18503D02*
X7559Y-18503D01*
X14960Y-16929D02*
X13700Y-16929D01*
X14960Y-18503D02*
X13700Y-18503D01*
G54D16*
X13582Y-19291D02*
X12322Y-19291D01*
X13582Y-16141D02*
X12322Y-16141D01*
X12323Y-19291D02*
X12323Y-16141D01*
X13582Y-19291D02*
X13582Y-16141D01*
G54D15*
X54330Y-18503D02*
X58976Y-18503D01*
X54330Y-16929D02*
X58976Y-16929D01*
X51574Y-18503D02*
X52834Y-18503D01*
X51574Y-16929D02*
X52834Y-16929D01*
G54D16*
X52952Y-16141D02*
X54212Y-16141D01*
X52952Y-19291D02*
X54212Y-19291D01*
X54212Y-16141D02*
X54212Y-19291D01*
X52953Y-16141D02*
X52953Y-19291D01*
G54D11*
X35539Y-8938D02*
X35939Y-8938D01*
X35939Y-8938D02*
X35939Y-8538D01*
X35939Y-8538D02*
X39139Y-8538D01*
X39139Y-8538D02*
X39139Y-9338D01*
X39139Y-9338D02*
X35939Y-9338D01*
X35939Y-9338D02*
X35939Y-8938D01*
X39539Y-8938D02*
X39139Y-8938D01*
G54D13*
X42039Y-8438D02*
X40039Y-8438D01*
X42039Y-9438D02*
X40039Y-9438D01*
X40039Y-9438D02*
X40039Y-8438D01*
G54D14*
X42039Y-9438D02*
X42039Y-8438D01*
G54D12*
X11614Y-37992D02*
X4527Y-37992D01*
X4527Y-37992D02*
X4527Y-35629D01*
X4527Y-35629D02*
X11614Y-35629D01*
X14370Y-38385D02*
X11614Y-38385D01*
X11614Y-38385D02*
X11614Y-35236D01*
X11614Y-35236D02*
X14370Y-35236D01*
X14370Y-42125D02*
X24409Y-42125D01*
X24409Y-42125D02*
X24409Y-31496D01*
X24409Y-31496D02*
X14370Y-31496D01*
X14370Y-31496D02*
X14370Y-42125D01*
G54D13*
X18094Y-44003D02*
X20094Y-44003D01*
X18094Y-43003D02*
X20094Y-43003D01*
X20094Y-43003D02*
X20094Y-44003D01*
G54D14*
X18094Y-43003D02*
X18094Y-44003D01*
G54D13*
X22850Y-43003D02*
X20850Y-43003D01*
X22850Y-44003D02*
X20850Y-44003D01*
X20850Y-44003D02*
X20850Y-43003D01*
G54D14*
X22850Y-44003D02*
X22850Y-43003D01*
G54D13*
X40066Y-39779D02*
X40066Y-37779D01*
X39066Y-39779D02*
X39066Y-37779D01*
X39066Y-37779D02*
X40066Y-37779D01*
G54D14*
X39066Y-39779D02*
X40066Y-39779D01*
G54D13*
X39066Y-33842D02*
X39066Y-35842D01*
X40066Y-33842D02*
X40066Y-35842D01*
X40066Y-35842D02*
X39066Y-35842D01*
G54D14*
X40066Y-33842D02*
X39066Y-33842D01*
G54D12*
X38336Y-41141D02*
X39086Y-41141D01*
X25086Y-41141D02*
X25836Y-41141D01*
X38336Y-45141D02*
X38336Y-37141D01*
X38336Y-37141D02*
X25836Y-37141D01*
X25836Y-37141D02*
X25836Y-45141D01*
X25836Y-45141D02*
X38336Y-45141D01*
X38336Y-32480D02*
X39086Y-32480D01*
X25086Y-32480D02*
X25836Y-32480D01*
X38336Y-36480D02*
X38336Y-28480D01*
X38336Y-28480D02*
X25836Y-28480D01*
X25836Y-28480D02*
X25836Y-36480D01*
X25836Y-36480D02*
X38336Y-36480D01*
G54D11*
X47806Y-39923D02*
X47619Y-40055D01*
X47806Y-40148D02*
X47413Y-40148D01*
X47413Y-39998D01*
X47432Y-39961D01*
X47450Y-39942D01*
X47488Y-39923D01*
X47544Y-39923D01*
X47582Y-39942D01*
X47600Y-39961D01*
X47619Y-39998D01*
X47619Y-40148D01*
X47806Y-39548D02*
X47806Y-39773D01*
X47806Y-39661D02*
X47413Y-39661D01*
X47469Y-39698D01*
X47507Y-39736D01*
X47525Y-39773D01*
X45806Y-38423D02*
X45619Y-38555D01*
X45806Y-38648D02*
X45413Y-38648D01*
X45413Y-38498D01*
X45432Y-38461D01*
X45450Y-38442D01*
X45488Y-38423D01*
X45544Y-38423D01*
X45582Y-38442D01*
X45600Y-38461D01*
X45619Y-38498D01*
X45619Y-38648D01*
X45413Y-38292D02*
X45413Y-38048D01*
X45563Y-38180D01*
X45563Y-38123D01*
X45582Y-38086D01*
X45600Y-38067D01*
X45638Y-38048D01*
X45732Y-38048D01*
X45769Y-38067D01*
X45788Y-38086D01*
X45806Y-38123D01*
X45806Y-38236D01*
X45788Y-38273D01*
X45769Y-38292D01*
X47806Y-34923D02*
X47619Y-35055D01*
X47806Y-35148D02*
X47413Y-35148D01*
X47413Y-34998D01*
X47432Y-34961D01*
X47450Y-34942D01*
X47488Y-34923D01*
X47544Y-34923D01*
X47582Y-34942D01*
X47600Y-34961D01*
X47619Y-34998D01*
X47619Y-35148D01*
X47413Y-34567D02*
X47413Y-34755D01*
X47600Y-34773D01*
X47582Y-34755D01*
X47563Y-34717D01*
X47563Y-34623D01*
X47582Y-34586D01*
X47600Y-34567D01*
X47638Y-34548D01*
X47732Y-34548D01*
X47769Y-34567D01*
X47788Y-34586D01*
X47806Y-34623D01*
X47806Y-34717D01*
X47788Y-34755D01*
X47769Y-34773D01*
X46806Y-39923D02*
X46619Y-40055D01*
X46806Y-40148D02*
X46413Y-40148D01*
X46413Y-39998D01*
X46432Y-39961D01*
X46450Y-39942D01*
X46488Y-39923D01*
X46544Y-39923D01*
X46582Y-39942D01*
X46600Y-39961D01*
X46619Y-39998D01*
X46619Y-40148D01*
X46450Y-39773D02*
X46432Y-39755D01*
X46413Y-39717D01*
X46413Y-39623D01*
X46432Y-39586D01*
X46450Y-39567D01*
X46488Y-39548D01*
X46525Y-39548D01*
X46582Y-39567D01*
X46806Y-39792D01*
X46806Y-39548D01*
X44806Y-38423D02*
X44619Y-38555D01*
X44806Y-38648D02*
X44413Y-38648D01*
X44413Y-38498D01*
X44432Y-38461D01*
X44450Y-38442D01*
X44488Y-38423D01*
X44544Y-38423D01*
X44582Y-38442D01*
X44600Y-38461D01*
X44619Y-38498D01*
X44619Y-38648D01*
X44544Y-38086D02*
X44806Y-38086D01*
X44394Y-38180D02*
X44675Y-38273D01*
X44675Y-38030D01*
X46806Y-34923D02*
X46619Y-35055D01*
X46806Y-35148D02*
X46413Y-35148D01*
X46413Y-34998D01*
X46432Y-34961D01*
X46450Y-34942D01*
X46488Y-34923D01*
X46544Y-34923D01*
X46582Y-34942D01*
X46600Y-34961D01*
X46619Y-34998D01*
X46619Y-35148D01*
X46413Y-34586D02*
X46413Y-34661D01*
X46432Y-34698D01*
X46450Y-34717D01*
X46507Y-34755D01*
X46582Y-34773D01*
X46732Y-34773D01*
X46769Y-34755D01*
X46788Y-34736D01*
X46806Y-34698D01*
X46806Y-34623D01*
X46788Y-34586D01*
X46769Y-34567D01*
X46732Y-34548D01*
X46638Y-34548D01*
X46600Y-34567D01*
X46582Y-34586D01*
X46563Y-34623D01*
X46563Y-34698D01*
X46582Y-34736D01*
X46600Y-34755D01*
X46638Y-34773D01*
X52016Y-29373D02*
X52016Y-29655D01*
X51997Y-29711D01*
X51960Y-29748D01*
X51903Y-29767D01*
X51866Y-29767D01*
X52391Y-29373D02*
X52203Y-29373D01*
X52185Y-29561D01*
X52203Y-29542D01*
X52241Y-29523D01*
X52335Y-29523D01*
X52372Y-29542D01*
X52391Y-29561D01*
X52410Y-29598D01*
X52410Y-29692D01*
X52391Y-29730D01*
X52372Y-29748D01*
X52335Y-29767D01*
X52241Y-29767D01*
X52203Y-29748D01*
X52185Y-29730D01*
G54D17*
X48593Y-30756D02*
X48705Y-30756D01*
X48761Y-30784D01*
X48818Y-30841D01*
X48846Y-30953D01*
X48846Y-31150D01*
X48818Y-31262D01*
X48761Y-31319D01*
X48705Y-31347D01*
X48593Y-31347D01*
X48536Y-31319D01*
X48480Y-31262D01*
X48452Y-31150D01*
X48452Y-30953D01*
X48480Y-30841D01*
X48536Y-30784D01*
X48593Y-30756D01*
X49099Y-30756D02*
X49099Y-31234D01*
X49127Y-31291D01*
X49155Y-31319D01*
X49211Y-31347D01*
X49324Y-31347D01*
X49380Y-31319D01*
X49408Y-31291D01*
X49436Y-31234D01*
X49436Y-30756D01*
X49633Y-30756D02*
X49971Y-30756D01*
X49802Y-31347D02*
X49802Y-30756D01*
X50027Y-31403D02*
X50477Y-31403D01*
X50899Y-31347D02*
X50617Y-31347D01*
X50617Y-30756D01*
G54D11*
X43016Y-29373D02*
X43016Y-29655D01*
X42997Y-29711D01*
X42960Y-29748D01*
X42903Y-29767D01*
X42866Y-29767D01*
X43372Y-29373D02*
X43297Y-29373D01*
X43260Y-29392D01*
X43241Y-29411D01*
X43203Y-29467D01*
X43185Y-29542D01*
X43185Y-29692D01*
X43203Y-29730D01*
X43222Y-29748D01*
X43260Y-29767D01*
X43335Y-29767D01*
X43372Y-29748D01*
X43391Y-29730D01*
X43410Y-29692D01*
X43410Y-29598D01*
X43391Y-29561D01*
X43372Y-29542D01*
X43335Y-29523D01*
X43260Y-29523D01*
X43222Y-29542D01*
X43203Y-29561D01*
X43185Y-29598D01*
G54D17*
X45286Y-30756D02*
X45399Y-30756D01*
X45455Y-30784D01*
X45511Y-30841D01*
X45539Y-30953D01*
X45539Y-31150D01*
X45511Y-31262D01*
X45455Y-31319D01*
X45399Y-31347D01*
X45286Y-31347D01*
X45230Y-31319D01*
X45174Y-31262D01*
X45146Y-31150D01*
X45146Y-30953D01*
X45174Y-30841D01*
X45230Y-30784D01*
X45286Y-30756D01*
X45793Y-30756D02*
X45793Y-31234D01*
X45821Y-31291D01*
X45849Y-31319D01*
X45905Y-31347D01*
X46017Y-31347D01*
X46074Y-31319D01*
X46102Y-31291D01*
X46130Y-31234D01*
X46130Y-30756D01*
X46327Y-30756D02*
X46664Y-30756D01*
X46496Y-31347D02*
X46496Y-30756D01*
X46721Y-31403D02*
X47170Y-31403D01*
X47649Y-31347D02*
X47452Y-31066D01*
X47311Y-31347D02*
X47311Y-30756D01*
X47536Y-30756D01*
X47592Y-30784D01*
X47620Y-30812D01*
X47649Y-30869D01*
X47649Y-30953D01*
X47620Y-31009D01*
X47592Y-31037D01*
X47536Y-31066D01*
X47311Y-31066D01*
G54D11*
X49163Y-44989D02*
X49444Y-44989D01*
X49500Y-45008D01*
X49538Y-45045D01*
X49556Y-45101D01*
X49556Y-45139D01*
X49163Y-44839D02*
X49163Y-44595D01*
X49313Y-44727D01*
X49313Y-44670D01*
X49332Y-44633D01*
X49350Y-44614D01*
X49388Y-44595D01*
X49482Y-44595D01*
X49519Y-44614D01*
X49538Y-44633D01*
X49556Y-44670D01*
X49556Y-44783D01*
X49538Y-44820D01*
X49519Y-44839D01*
G54D17*
X48636Y-44131D02*
X48046Y-44131D01*
X48636Y-43850D02*
X48046Y-43850D01*
X48636Y-43512D01*
X48046Y-43512D01*
X48692Y-43372D02*
X48692Y-42922D01*
X48636Y-42500D02*
X48636Y-42781D01*
X48046Y-42781D01*
G54D11*
X46413Y-44989D02*
X46694Y-44989D01*
X46750Y-45008D01*
X46788Y-45045D01*
X46806Y-45101D01*
X46806Y-45139D01*
X46544Y-44633D02*
X46806Y-44633D01*
X46394Y-44727D02*
X46675Y-44820D01*
X46675Y-44577D01*
G54D17*
X47636Y-44187D02*
X47046Y-44187D01*
X47636Y-43906D02*
X47046Y-43906D01*
X47636Y-43569D01*
X47046Y-43569D01*
X47692Y-43428D02*
X47692Y-42978D01*
X47636Y-42500D02*
X47355Y-42697D01*
X47636Y-42838D02*
X47046Y-42838D01*
X47046Y-42613D01*
X47074Y-42556D01*
X47102Y-42528D01*
X47158Y-42500D01*
X47242Y-42500D01*
X47299Y-42528D01*
X47327Y-42556D01*
X47355Y-42613D01*
X47355Y-42838D01*
G54D11*
X50766Y-45873D02*
X50766Y-46155D01*
X50747Y-46211D01*
X50710Y-46248D01*
X50653Y-46267D01*
X50616Y-46267D01*
X51160Y-46267D02*
X50935Y-46267D01*
X51047Y-46267D02*
X51047Y-45873D01*
X51010Y-45930D01*
X50972Y-45967D01*
X50935Y-45986D01*
G54D17*
X49744Y-42847D02*
X49744Y-42256D01*
X49969Y-42256D01*
X50025Y-42284D01*
X50053Y-42312D01*
X50082Y-42369D01*
X50082Y-42453D01*
X50053Y-42509D01*
X50025Y-42537D01*
X49969Y-42566D01*
X49744Y-42566D01*
X50278Y-42256D02*
X50419Y-42847D01*
X50532Y-42425D01*
X50644Y-42847D01*
X50785Y-42256D01*
X51347Y-42847D02*
X51150Y-42566D01*
X51010Y-42847D02*
X51010Y-42256D01*
X51235Y-42256D01*
X51291Y-42284D01*
X51319Y-42312D01*
X51347Y-42369D01*
X51347Y-42453D01*
X51319Y-42509D01*
X51291Y-42537D01*
X51235Y-42566D01*
X51010Y-42566D01*
X51600Y-42622D02*
X52050Y-42622D01*
X51825Y-42847D02*
X51825Y-42397D01*
G54D11*
X44766Y-45873D02*
X44766Y-46155D01*
X44747Y-46211D01*
X44710Y-46248D01*
X44653Y-46267D01*
X44616Y-46267D01*
X44935Y-45911D02*
X44953Y-45892D01*
X44991Y-45873D01*
X45085Y-45873D01*
X45122Y-45892D01*
X45141Y-45911D01*
X45160Y-45948D01*
X45160Y-45986D01*
X45141Y-46042D01*
X44916Y-46267D01*
X45160Y-46267D01*
G54D17*
X43744Y-42847D02*
X43744Y-42256D01*
X43969Y-42256D01*
X44025Y-42284D01*
X44053Y-42312D01*
X44082Y-42369D01*
X44082Y-42453D01*
X44053Y-42509D01*
X44025Y-42537D01*
X43969Y-42566D01*
X43744Y-42566D01*
X44278Y-42256D02*
X44419Y-42847D01*
X44532Y-42425D01*
X44644Y-42847D01*
X44785Y-42256D01*
X45347Y-42847D02*
X45150Y-42566D01*
X45010Y-42847D02*
X45010Y-42256D01*
X45235Y-42256D01*
X45291Y-42284D01*
X45319Y-42312D01*
X45347Y-42369D01*
X45347Y-42453D01*
X45319Y-42509D01*
X45291Y-42537D01*
X45235Y-42566D01*
X45010Y-42566D01*
X45600Y-42622D02*
X46050Y-42622D01*
G54D11*
X43806Y-35923D02*
X43619Y-36055D01*
X43806Y-36148D02*
X43413Y-36148D01*
X43413Y-35998D01*
X43432Y-35961D01*
X43450Y-35942D01*
X43488Y-35923D01*
X43544Y-35923D01*
X43582Y-35942D01*
X43600Y-35961D01*
X43619Y-35998D01*
X43619Y-36148D01*
X43413Y-35792D02*
X43413Y-35530D01*
X43806Y-35698D01*
X43519Y-31173D02*
X43538Y-31192D01*
X43556Y-31248D01*
X43556Y-31286D01*
X43538Y-31342D01*
X43500Y-31380D01*
X43463Y-31398D01*
X43388Y-31417D01*
X43332Y-31417D01*
X43257Y-31398D01*
X43219Y-31380D01*
X43182Y-31342D01*
X43163Y-31286D01*
X43163Y-31248D01*
X43182Y-31192D01*
X43200Y-31173D01*
X43294Y-30836D02*
X43556Y-30836D01*
X43144Y-30930D02*
X43425Y-31023D01*
X43425Y-30780D01*
G54D18*
X45411Y-33586D02*
X45411Y-33129D01*
X45640Y-33358D02*
X45183Y-33358D01*
G54D11*
X52413Y-40908D02*
X52732Y-40908D01*
X52769Y-40889D01*
X52788Y-40870D01*
X52806Y-40833D01*
X52806Y-40758D01*
X52788Y-40720D01*
X52769Y-40702D01*
X52732Y-40683D01*
X52413Y-40683D01*
X52806Y-40289D02*
X52806Y-40514D01*
X52806Y-40402D02*
X52413Y-40402D01*
X52469Y-40439D01*
X52507Y-40477D01*
X52525Y-40514D01*
X43413Y-40989D02*
X43694Y-40989D01*
X43750Y-41008D01*
X43788Y-41045D01*
X43806Y-41101D01*
X43806Y-41139D01*
X43413Y-40839D02*
X43413Y-40577D01*
X43806Y-40745D01*
X42806Y-40023D02*
X42413Y-40023D01*
X42694Y-39892D01*
X42413Y-39761D01*
X42806Y-39761D01*
X42413Y-39573D02*
X42732Y-39573D01*
X42769Y-39555D01*
X42788Y-39536D01*
X42806Y-39498D01*
X42806Y-39423D01*
X42788Y-39386D01*
X42769Y-39367D01*
X42732Y-39348D01*
X42413Y-39348D01*
X42413Y-39217D02*
X42413Y-38992D01*
X42806Y-39105D02*
X42413Y-39105D01*
X42600Y-38861D02*
X42600Y-38730D01*
X42806Y-38673D02*
X42806Y-38861D01*
X42413Y-38861D01*
X42413Y-38673D01*
G54D17*
X29190Y-23621D02*
X29162Y-23649D01*
X29078Y-23678D01*
X29022Y-23678D01*
X28937Y-23649D01*
X28881Y-23593D01*
X28853Y-23537D01*
X28825Y-23424D01*
X28825Y-23340D01*
X28853Y-23228D01*
X28881Y-23171D01*
X28937Y-23115D01*
X29022Y-23087D01*
X29078Y-23087D01*
X29162Y-23115D01*
X29190Y-23143D01*
X29753Y-23678D02*
X29415Y-23678D01*
X29584Y-23678D02*
X29584Y-23087D01*
X29528Y-23171D01*
X29472Y-23228D01*
X29415Y-23256D01*
X48940Y-23621D02*
X48912Y-23649D01*
X48828Y-23678D01*
X48772Y-23678D01*
X48687Y-23649D01*
X48631Y-23593D01*
X48603Y-23537D01*
X48575Y-23424D01*
X48575Y-23340D01*
X48603Y-23228D01*
X48631Y-23171D01*
X48687Y-23115D01*
X48772Y-23087D01*
X48828Y-23087D01*
X48912Y-23115D01*
X48940Y-23143D01*
X49447Y-23284D02*
X49447Y-23678D01*
X49306Y-23059D02*
X49165Y-23481D01*
X49531Y-23481D01*
X14687Y-20135D02*
X15109Y-20135D01*
X15194Y-20163D01*
X15250Y-20220D01*
X15278Y-20304D01*
X15278Y-20360D01*
X14744Y-19882D02*
X14715Y-19854D01*
X14687Y-19798D01*
X14687Y-19657D01*
X14715Y-19601D01*
X14744Y-19573D01*
X14800Y-19545D01*
X14856Y-19545D01*
X14940Y-19573D01*
X15278Y-19910D01*
X15278Y-19545D01*
X15278Y-15748D02*
X14687Y-15748D01*
X15278Y-15467D02*
X14687Y-15467D01*
X15278Y-15129D01*
X14687Y-15129D01*
X51187Y-15385D02*
X51609Y-15385D01*
X51694Y-15413D01*
X51750Y-15470D01*
X51778Y-15554D01*
X51778Y-15610D01*
X51778Y-14795D02*
X51778Y-15132D01*
X51778Y-14964D02*
X51187Y-14964D01*
X51272Y-15020D01*
X51328Y-15076D01*
X51356Y-15132D01*
X51187Y-20779D02*
X51187Y-20667D01*
X51215Y-20610D01*
X51272Y-20554D01*
X51384Y-20526D01*
X51581Y-20526D01*
X51694Y-20554D01*
X51750Y-20610D01*
X51778Y-20667D01*
X51778Y-20779D01*
X51750Y-20835D01*
X51694Y-20892D01*
X51581Y-20920D01*
X51384Y-20920D01*
X51272Y-20892D01*
X51215Y-20835D01*
X51187Y-20779D01*
X51187Y-20273D02*
X51665Y-20273D01*
X51722Y-20245D01*
X51750Y-20217D01*
X51778Y-20160D01*
X51778Y-20048D01*
X51750Y-19992D01*
X51722Y-19964D01*
X51665Y-19935D01*
X51187Y-19935D01*
X51187Y-19739D02*
X51187Y-19401D01*
X51778Y-19570D02*
X51187Y-19570D01*
G54D19*
X37440Y-9248D02*
X37244Y-8967D01*
X37103Y-9248D02*
X37103Y-8658D01*
X37328Y-8658D01*
X37384Y-8686D01*
X37412Y-8714D01*
X37440Y-8770D01*
X37440Y-8855D01*
X37412Y-8911D01*
X37384Y-8939D01*
X37328Y-8967D01*
X37103Y-8967D01*
X38003Y-9248D02*
X37665Y-9248D01*
X37834Y-9248D02*
X37834Y-8658D01*
X37778Y-8742D01*
X37722Y-8798D01*
X37665Y-8827D01*
G54D18*
X40839Y-9581D02*
X40839Y-10010D01*
X40810Y-10096D01*
X40753Y-10153D01*
X40667Y-10181D01*
X40610Y-10181D01*
X41067Y-9581D02*
X41439Y-9581D01*
X41239Y-9810D01*
X41325Y-9810D01*
X41382Y-9838D01*
X41410Y-9867D01*
X41439Y-9924D01*
X41439Y-10067D01*
X41410Y-10124D01*
X41382Y-10153D01*
X41325Y-10181D01*
X41153Y-10181D01*
X41096Y-10153D01*
X41067Y-10124D01*
X40653Y-8181D02*
X40367Y-8181D01*
X40367Y-7581D01*
X40853Y-7867D02*
X41053Y-7867D01*
X41139Y-8181D02*
X40853Y-8181D01*
X40853Y-7581D01*
X41139Y-7581D01*
X41396Y-8181D02*
X41396Y-7581D01*
X41539Y-7581D01*
X41625Y-7610D01*
X41682Y-7667D01*
X41710Y-7724D01*
X41739Y-7838D01*
X41739Y-7924D01*
X41710Y-8038D01*
X41682Y-8096D01*
X41625Y-8153D01*
X41539Y-8181D01*
X41396Y-8181D01*
G54D17*
X23383Y-31144D02*
X23383Y-30553D01*
X23607Y-30553D01*
X23664Y-30582D01*
X23692Y-30610D01*
X23720Y-30666D01*
X23720Y-30750D01*
X23692Y-30807D01*
X23664Y-30835D01*
X23607Y-30863D01*
X23383Y-30863D01*
X24282Y-31144D02*
X23945Y-31144D01*
X24114Y-31144D02*
X24114Y-30553D01*
X24057Y-30638D01*
X24001Y-30694D01*
X23945Y-30722D01*
G54D18*
X17516Y-42359D02*
X17516Y-42787D01*
X17487Y-42873D01*
X17430Y-42930D01*
X17345Y-42959D01*
X17287Y-42959D01*
X17745Y-42359D02*
X18116Y-42359D01*
X17916Y-42587D01*
X18002Y-42587D01*
X18059Y-42616D01*
X18087Y-42645D01*
X18116Y-42702D01*
X18116Y-42845D01*
X18087Y-42902D01*
X18059Y-42930D01*
X18002Y-42959D01*
X17830Y-42959D01*
X17773Y-42930D01*
X17745Y-42902D01*
X18023Y-44146D02*
X18137Y-44146D01*
X18194Y-44175D01*
X18251Y-44232D01*
X18280Y-44346D01*
X18280Y-44546D01*
X18251Y-44661D01*
X18194Y-44718D01*
X18137Y-44746D01*
X18023Y-44746D01*
X17965Y-44718D01*
X17908Y-44661D01*
X17880Y-44546D01*
X17880Y-44346D01*
X17908Y-44232D01*
X17965Y-44175D01*
X18023Y-44146D01*
X18537Y-44146D02*
X18537Y-44632D01*
X18565Y-44689D01*
X18594Y-44718D01*
X18651Y-44746D01*
X18765Y-44746D01*
X18823Y-44718D01*
X18851Y-44689D01*
X18880Y-44632D01*
X18880Y-44146D01*
X19080Y-44146D02*
X19423Y-44146D01*
X19251Y-44746D02*
X19251Y-44146D01*
X19480Y-44803D02*
X19937Y-44803D01*
X20365Y-44746D02*
X20080Y-44746D01*
X20080Y-44146D01*
X23225Y-42359D02*
X23225Y-42787D01*
X23196Y-42873D01*
X23139Y-42930D01*
X23053Y-42959D01*
X22996Y-42959D01*
X23768Y-42559D02*
X23768Y-42959D01*
X23625Y-42330D02*
X23482Y-42759D01*
X23853Y-42759D01*
X20918Y-44131D02*
X21032Y-44131D01*
X21090Y-44159D01*
X21147Y-44216D01*
X21175Y-44331D01*
X21175Y-44531D01*
X21147Y-44645D01*
X21090Y-44702D01*
X21032Y-44731D01*
X20918Y-44731D01*
X20861Y-44702D01*
X20804Y-44645D01*
X20775Y-44531D01*
X20775Y-44331D01*
X20804Y-44216D01*
X20861Y-44159D01*
X20918Y-44131D01*
X21432Y-44131D02*
X21432Y-44616D01*
X21461Y-44673D01*
X21490Y-44702D01*
X21547Y-44731D01*
X21661Y-44731D01*
X21718Y-44702D01*
X21747Y-44673D01*
X21775Y-44616D01*
X21775Y-44131D01*
X21975Y-44131D02*
X22318Y-44131D01*
X22147Y-44731D02*
X22147Y-44131D01*
X22375Y-44788D02*
X22832Y-44788D01*
X23318Y-44731D02*
X23118Y-44445D01*
X22975Y-44731D02*
X22975Y-44131D01*
X23204Y-44131D01*
X23261Y-44159D01*
X23290Y-44188D01*
X23318Y-44245D01*
X23318Y-44331D01*
X23290Y-44388D01*
X23261Y-44416D01*
X23204Y-44445D01*
X22975Y-44445D01*
X39603Y-40751D02*
X40032Y-40751D01*
X40117Y-40779D01*
X40174Y-40836D01*
X40203Y-40922D01*
X40203Y-40979D01*
X40203Y-40151D02*
X40203Y-40494D01*
X40203Y-40322D02*
X39603Y-40322D01*
X39689Y-40379D01*
X39746Y-40436D01*
X39774Y-40494D01*
X40809Y-39565D02*
X40209Y-39565D01*
X40809Y-39279D02*
X40209Y-39279D01*
X40809Y-38936D01*
X40209Y-38936D01*
X40866Y-38793D02*
X40866Y-38336D01*
X40809Y-37908D02*
X40809Y-38193D01*
X40209Y-38193D01*
X39603Y-33270D02*
X40032Y-33270D01*
X40117Y-33299D01*
X40174Y-33356D01*
X40203Y-33442D01*
X40203Y-33499D01*
X39660Y-33013D02*
X39632Y-32985D01*
X39603Y-32928D01*
X39603Y-32785D01*
X39632Y-32728D01*
X39660Y-32699D01*
X39717Y-32670D01*
X39774Y-32670D01*
X39860Y-32699D01*
X40203Y-33042D01*
X40203Y-32670D01*
X40794Y-35685D02*
X40194Y-35685D01*
X40794Y-35399D02*
X40194Y-35399D01*
X40794Y-35056D01*
X40194Y-35056D01*
X40851Y-34913D02*
X40851Y-34456D01*
X40794Y-33971D02*
X40508Y-34171D01*
X40794Y-34313D02*
X40194Y-34313D01*
X40194Y-34085D01*
X40222Y-34028D01*
X40251Y-33999D01*
X40308Y-33971D01*
X40394Y-33971D01*
X40451Y-33999D01*
X40479Y-34028D01*
X40508Y-34085D01*
X40508Y-34313D01*
G54D17*
X25379Y-44586D02*
X25407Y-44614D01*
X25435Y-44699D01*
X25435Y-44755D01*
X25407Y-44839D01*
X25351Y-44895D01*
X25295Y-44924D01*
X25182Y-44952D01*
X25098Y-44952D01*
X24985Y-44924D01*
X24929Y-44895D01*
X24873Y-44839D01*
X24845Y-44755D01*
X24845Y-44699D01*
X24873Y-44614D01*
X24901Y-44586D01*
X25435Y-44024D02*
X25435Y-44361D01*
X25435Y-44192D02*
X24845Y-44192D01*
X24929Y-44249D01*
X24985Y-44305D01*
X25014Y-44361D01*
X25379Y-29232D02*
X25407Y-29260D01*
X25435Y-29344D01*
X25435Y-29401D01*
X25407Y-29485D01*
X25351Y-29541D01*
X25295Y-29569D01*
X25182Y-29597D01*
X25098Y-29597D01*
X24985Y-29569D01*
X24929Y-29541D01*
X24873Y-29485D01*
X24845Y-29401D01*
X24845Y-29344D01*
X24873Y-29260D01*
X24901Y-29232D01*
X24901Y-29007D02*
X24873Y-28979D01*
X24845Y-28922D01*
X24845Y-28782D01*
X24873Y-28726D01*
X24901Y-28697D01*
X24957Y-28669D01*
X25014Y-28669D01*
X25098Y-28697D01*
X25435Y-29035D01*
X25435Y-28669D01*
M02*
